<?xml version="1.0" encoding="UTF-8"?>
<!DOCTYPE svg PUBLIC "-//W3C//DTD SVG 1.1//EN" "http://www.w3.org/Graphics/SVG/1.1/DTD/svg11.dtd">
<!-- Creator: CorelDRAW 2019 (64-Bit) -->
<svg xmlns="http://www.w3.org/2000/svg" xml:space="preserve" width="45.459mm" height="42.4391mm" version="1.1" style="shape-rendering:geometricPrecision; text-rendering:geometricPrecision; image-rendering:optimizeQuality; fill-rule:evenodd; clip-rule:evenodd"
viewBox="0 0 1314.6 1227.27"
 xmlns:xlink="http://www.w3.org/1999/xlink"
 xmlns:xodm="http://www.corel.com/coreldraw/odm/2003">
 <defs>
  <style type="text/css">
   <![CDATA[
    .fil0 {fill:#ff9211;fill-rule:nonzero}
   ]]>
  </style>
 </defs>
 <g id="Слой_x0020_1">
  <metadata id="CorelCorpID_0Corel-Layer"/>
  <path class="fil0" d="M1265.48 693.8c-1.17,-2 -4.11,-19.37 0.75,-14.65 4.11,3.89 0.27,10.41 -0.75,14.65zm-4.84 13.89c-0.44,-1.24 -0.85,-2.5 -1.19,-3.72 2.02,2.41 3.87,3.09 1.19,3.72zm-1.26 97.06c-1.58,4.96 -4.11,9.51 -6.23,14.18 1.8,-10.44 4.53,-18.49 8.56,-28.15 -0.56,4.7 -0.85,9.47 -2.33,13.97zm-12.82 -44.65c-1.27,1.36 -2.78,2.29 -4.62,2.78 0.27,-3.02 0.66,-5.86 3.02,-7.88 1,1.58 1.51,3.31 1.61,5.11zm-10.22 161.34c-1.85,-1.17 -3.7,-2.38 -5.55,-3.55 2.92,1 5.55,0.68 5.55,3.55zm-8.15 -25.74c0.61,-0.24 0.83,-1.48 0.93,-0.34 0.07,1.14 -0.27,0.07 -0.93,0.34zm-4.36 21.02c-10.07,13.94 -20.53,26.3 -32.26,38.93 -1.78,1.9 -13.07,16.3 -13.41,6.5 -0.17,-4.99 11.07,-8.68 5.03,-12.16 8.1,-6.64 16.6,-12.65 23.53,-20.56 6.3,-7.18 11.73,-14.72 18.88,-21.05 -0.51,2.61 -0.12,6.04 -1.78,8.35zm-49.03 56.35c-4.7,4.92 -9.49,9.76 -14.53,14.28 4.21,-5.5 7.98,-13.77 14.18,-17.11 0.41,0.95 0.51,1.85 0.34,2.82zm-26.08 26.42c3.29,-3.24 6.47,-6.47 9.66,-9.68 -2.02,3.55 -6.64,6.74 -9.66,9.68zm-9.9 20.51c-1.9,3.33 -2.51,-2.53 -2.34,-2.41 0.44,0.51 4.36,-1 2.34,2.41zm-281.97 166.79c-0.9,-0.71 -0.85,-1.29 0.44,-1.63 -0.1,0.02 1.68,0.95 -0.44,1.63zm-753.07 -394.43c0.51,1.68 1.12,3.31 1.68,4.96 -1,-1.41 -1.41,-3.16 -1.68,-4.96zm5.47 39.32c-2.36,-1.43 -2.36,-1.43 -1.43,-4.01 2.26,0.71 2.77,2.04 1.43,4.01zm-12.24 -57.27c0,-1.34 0.24,-2.68 0.39,-4.02 1.36,4.84 2.63,9.59 4.14,14.38 -1.51,-2.77 -4.87,-6.98 -4.53,-10.36zm-11.56 -2.17c-2.87,-3.36 -6.47,-5.4 -4.14,-9.39 2.36,3.38 6.21,5.4 4.14,9.39zm-6.3 -93.55c-3.04,-15.89 -10.63,-32.43 -3.94,-48.32 3.87,5.16 2.19,17.35 2.58,23.82 0.61,8.54 1.36,17.08 2.29,25.64 -0.27,-0.36 -0.61,-0.78 -0.92,-1.15zm-0.75 62.7c0.07,-0.41 0.07,-0.87 0.17,-1.34 1.24,1 0.17,0.71 -0.17,1.34zm-3.29 -10.97c-0.73,-0.32 -1.41,-0.73 -2.07,-1.1 1.07,-1.31 2.17,-1.17 3.33,0.44 -0.44,0.22 -0.83,0.44 -1.26,0.66zm-5.25 -108.91c1.34,-1.21 2.67,-2.5 4.01,-3.74 4.91,5.74 1.92,8.39 -4.01,3.74zm5.86 -24.33c-0.85,0.34 -0.51,1.41 -1.85,0.51 0.41,-1.02 1,-1.19 1.85,-0.51zm-1.17 -26.76c1.24,-1.87 2.58,-3.68 3.92,-5.43 -0.24,3.77 0.51,21.34 -3.6,22.63 -2.6,0.8 -1.78,-14.94 -0.32,-17.2zm4.87 -48.79c0.83,-1.53 3.41,0.1 3.92,0.85 0.92,1.34 -2.26,13.96 -2.36,13.96 -4.87,0.61 -2.9,-12.46 -1.56,-14.82zm46.16 -144.33c-0.07,0.12 -0.07,0.24 -0.17,0.34 0.1,-0.1 0.1,-0.22 0.17,-0.34zm196.76 -244.45c6.18,-4.38 11.29,-9.76 18.59,-12.31 -5.18,3.5 -13.58,11.07 -18.59,12.31zm728.98 26.18c4.52,-1.68 7.81,4.26 4.62,7.18 -2.19,-1.87 -4.36,-3.82 -6.54,-5.69 0.68,-0.49 1.24,-1 1.92,-1.48zm18.37 13.57c6.42,5.09 11.07,12.34 16.08,18.74 -5.86,-2.75 -20.39,-12.97 -20.61,-19.27 1.51,0.17 3.02,0.37 4.53,0.53zm1.92 -11.46c1.78,0.12 3.5,0.19 5.35,0.29 -0.58,3.09 0.17,6.03 -3.53,5.6 -3.02,-0.36 -1.83,-3.65 -1.83,-5.89zm17.25 18.05c8.22,3.07 12.67,9.46 17.37,16.67 4.53,6.98 11.15,14.79 12.8,22.97 -6.59,-1.82 -12.8,-9.92 -16.81,-14.45 -6.47,-7.4 -13.7,-15.45 -13.36,-25.18zm16.69 -8.96l-6.47 -5.38c3.19,0.53 7.5,-0.07 6.47,5.38zm27.18 67.81c2.33,3.6 4.74,7.15 7.1,10.73 -1.51,-1.92 -8.61,-9.15 -7.1,-10.73zm9.88 20.88c-1.44,-1.87 -2.95,-3.7 -4.45,-5.55 5.01,-3.24 8.64,1.68 4.45,5.55zm53.72 51.31c0.58,-1.34 0.83,-2.75 0.75,-4.26 11.07,6.33 1.68,10.56 2.87,19.27 9.61,-5.89 10.44,0.49 13.79,9.2 3.36,8.88 8.4,18.54 7.15,28.1 -2.63,-5.47 -4.79,-11.15 -7.37,-16.62 -1.46,-2.89 -6.81,-11.82 -8.32,-3.6 -0.51,2.68 13.24,31.87 2.43,25.21 -3.43,-2.09 -4.84,-11.53 -5.96,-14.97 -2.34,-7.01 -4.7,-13.94 -7.03,-20.93 -3.36,-10.02 -10.07,-17.05 1.68,-21.41zm27.59 82.99c1.68,5.6 1.07,11.49 1.34,17.23 -2.85,-3.21 -4.02,-9.63 -5.62,-13.72 -1.36,-3.41 -6.79,-11.9 -3.26,-13.75 6.59,-3.55 6.59,7.06 7.54,10.24zm2 -21.07c0.34,0.34 0.68,0.68 1.02,1 -0.44,0.12 -0.83,0.24 -1.26,0.34 0.07,-0.44 0.14,-0.9 0.24,-1.34zm15.16 90.44c-3.53,-13.31 -7.54,-26.47 -11.97,-39.44 3.53,4.33 4.87,12.94 6.45,18.25 2.12,6.98 3.96,14.02 5.52,21.19zm-4.67 -44.33c1.34,0.56 1.51,1.6 0.58,3.09 -1.6,-0.85 -0.78,-1.51 -0.58,-3.09zm14.4 19.78c2.12,2.87 1,4.53 0.17,7.93 -1.51,-0.8 -2.92,-1.56 -4.43,-2.36 1.41,-1.85 2.85,-3.72 4.26,-5.57zm-33.36 408.06c-0.34,1 -0.9,1.17 -1.75,0.49 0,-0.32 0,-0.73 0,-1.07 0.58,0.17 1.17,0.41 1.75,0.58zm13.92 68.32c-0.42,0.78 -0.85,1.58 -1.24,2.39 -0.51,-1.6 -0.1,-2.41 1.24,-2.39zm25.64 -228.05c-0.68,0.46 -0.08,1.15 -1,0.95 0.32,-3.26 -0.08,-0.14 1,-0.95zm11.07 -30.95c0.44,-1.92 1,-3.77 1.78,-5.57 0.66,4.97 1.65,7.2 -1.6,11.02 -0.25,-1.8 -0.34,-3.6 -0.17,-5.45zm1.34 -23.33c1.78,0.1 1.27,-0.32 1.27,2.48 -1.68,0.37 -2.12,-0.49 -1.27,-2.48zm-294.55 -526.91c-0.58,0.32 -0.34,1.63 -0.9,0.51 -0.61,-1.19 0.32,-0.19 0.9,-0.51zm310.29 613.6c-5.86,17.45 -9.37,37.5 -17.98,53.82 -0.85,-8.81 2.56,-17.88 4.57,-26.57 1.51,-6.79 2.12,-16.35 4.97,-21.97 -0.83,-7.66 1.41,-19.47 2.02,-28.35 0.56,-9.68 0,-18.61 4.53,-27.25 4.43,-8.4 2.07,-17.4 3.58,-26.62 1.51,-9.47 4.69,-18.61 6.64,-28 -10.88,0 -21.9,0 -32.78,0 0,-7.98 -0.24,-15.99 -0.58,-23.96 -0.17,-3.97 -0.44,-7.93 -0.68,-11.92 -0.15,-2 -1,-6.13 -0.58,-7.86 0.32,-1.17 2.77,-2.09 2.85,-3.43 0.27,-5.99 -3.26,-11.36 -3.53,-17.86 -0.24,-8.39 -1.85,-16.47 -2.16,-24.74 -0.34,-6.86 2.94,-11.05 0.75,-17.28 -2.26,-6.47 -2.94,-5.25 2.19,-9.78 2.07,-1.9 3.53,-0.05 3.41,-3.53 -0.15,-4.02 -2.92,-1.05 -4.26,-3.38 -2.94,-5.03 4.38,-3.24 4.77,-8.25 0.44,-5.21 -7.78,-1.48 -9.9,-5.55 -0.73,-1.46 0.17,-4.16 0.51,-5.62 0.44,-2.09 4.96,-7.59 4.96,-8.59 0.07,-3.31 -6.81,-3.72 -7.13,-8.85 -0.08,-2.41 1.95,-4.77 2.77,-6.91 1.51,-4.04 2.24,-7.83 2.19,-12.14 -0.61,-17.08 -7.88,-36.13 -13.02,-52.36 -5.52,-17.71 -11.9,-35.21 -19.34,-52.16 -5.55,-12.73 -12.24,-24.79 -19.12,-36.72 -3.68,-6.4 -7.2,-13.41 -12.58,-18.44 -2,9.15 2.26,19.39 3.94,28.49 -2.41,-8.88 -5.04,-3.84 -10.9,-2.41 -6.72,1.61 -7.2,-4.14 -10.05,-9.95 -4.38,-8.93 -8.95,-17.64 -13.82,-26.25 -3.29,-5.94 -6.98,-11.53 -10.39,-17.2 -2.29,-3.82 -2.87,-9.54 2.89,-6.89 5.38,2.48 10.25,11.34 13.87,15.64 4.09,-4.06 -4.62,-15.38 -8.56,-17.54 -6.52,-3.7 -18.1,-6.47 -20.29,-14.18 8.81,3.53 10.58,9.51 18.95,1.31 -4.87,-4.21 -9.88,-7.52 -12.85,-13.36 -5.43,-11.17 -8.95,-23.41 -14.91,-34.43 -7.11,-13.38 -28.4,-25.6 -40.73,-33.63 1.95,3.68 3.63,7.47 5.35,11.29 5.96,-3.14 4.62,6.23 3.7,8.93 -7.61,-7.08 -15.94,-10.17 -18.18,-21.07 -1.26,-5.89 -0.68,-5.94 -6.71,-8.98 -5.69,-2.92 -5.62,-2.36 -5.96,-8.71 3.67,0.88 7.3,1.9 10.9,2.94 0.44,-4.96 3.19,-12.85 -2.67,-15.52 -3.09,-1.34 -8.88,1.7 -11.32,-0.51 -2.12,-1.95 -0.44,-5.77 -0.27,-8.15 0.44,-7.37 -1.34,-12.94 -4.6,-19.47 -1,2.67 -1.82,5.55 -3.29,8.1 -1.07,2.14 -5.77,5.64 -6.26,7.61 -1.12,4.55 5.43,8.4 5.01,13.07 -0.75,6.98 -4.45,4.23 -8.54,2.22 -4.14,-2.04 -9.15,-2.6 -12.85,-5.4 -4.53,-3.41 -6.08,-9.15 -10.39,-12.99 -5.69,-5.23 -12.48,-9.54 -18.85,-14.06 -4.62,-3.29 -34.18,-26.52 -37.47,-19.12 -1.85,4.11 6.47,6.86 9.05,9.07 5.62,4.87 10.07,11.02 15.69,15.89 11.46,9.86 23.87,18.61 35.45,28.3 5.62,4.72 11.05,9.59 16.18,14.89 2.58,2.63 12.75,10.97 12.41,14.81 -0.51,7.08 -8.54,1.15 -11.39,-0.68 -4.89,-3.07 -9.25,-7.83 -15.6,-6.18 0.66,1.7 1.34,3.46 2,5.16 -8.37,-6.47 -16.93,-12.75 -25.57,-18.78 8.81,3.43 6.64,-3.94 2.12,-8.35 -4.65,-4.6 -11.34,-6.2 -17.62,-7.08 1.41,3.19 3.36,6.2 5.72,8.76 -4.65,-3.02 -9.25,-5.94 -13.87,-8.88 2.36,-0.07 4.69,-0.17 7.06,-0.24 -5.86,-2.12 -5.43,-9.29 -11.24,-12.68 -1.51,-0.88 -15.08,-5.94 -15.43,-3.99 -0.39,2.46 3.63,4.31 3.46,7.2 -7.88,-4.55 -15.77,-8.91 -23.8,-13.07 -7.32,-3.85 -17.96,-6.93 -24.43,-12 -4.53,-3.6 -6.25,-7.54 -12.55,-8.32 -0.68,0.53 -1.34,1.15 -2.02,1.68 -1.92,-0.85 -3.92,-1.63 -5.94,-2.48 -5.69,-2.34 -5.69,-2.68 -7.54,-8.44 -2.67,4.4 -0.83,4.09 -6.3,2.92 -3.19,-0.68 -6.45,-2.43 -9.47,-3.58 -6.96,-2.56 -14.01,-5.01 -21.05,-7.33 2.51,-0.68 2.51,-1.51 -0.58,-2.36 0,0.68 -0.07,1.41 -0.14,2.12 -43.02,-13.94 -87.79,-22.99 -132.94,-26.86 -22.14,-1.9 -44.43,-2.31 -66.5,-4.02 -10.56,-0.85 -20.95,-0.63 -31.58,0 -2.94,0.1 -27.76,0.53 -24.48,6.43 -3.96,0.49 -7.81,0.95 -11.73,1.53 2.5,-5.52 -11,-5.77 -3.11,0.36 -39.15,5.79 -77.81,15.57 -115.01,29.15 -4.53,1.65 -9.39,2.46 -13.57,3.53 -1.51,-1.07 -2.58,-0.9 -3.19,0.51 -0.68,0.66 -1.17,1.48 -1.58,2.41 -6.98,3.7 -16.26,7.28 -24.23,10.9 -7.89,3.53 -12.41,5.77 -20.37,6.59 -5.52,0.61 -8.88,0.51 -13.16,3.68 -3.7,2.65 -6.89,7.06 -9.81,10.46 1.41,-0.51 2.85,-0.93 4.36,-1.29 -10.97,5.99 -21.6,12.41 -32.17,19.05 3.09,-2.92 5.43,-6.06 7.93,-9.42 -11.9,-1.05 -25.64,8.81 -35.94,14.55 -2.8,1.53 -6.3,2.92 -8.83,4.89 -5.84,4.53 -4.06,11.7 3.62,12.58 -2.43,1.78 -4.79,3.65 -7.2,5.33 -2.68,1.8 -1.17,-0.85 -2.85,0.34 -2.12,1.41 0.39,1.19 0.58,1.36 -64.11,48.93 -118.1,110.95 -157.66,181.22 0.24,-4.31 -5.79,4.99 -6.21,5.64 -2.46,3.72 -4.36,7.91 -6.47,11.9 -4.52,8.56 -9.05,17.03 -13.09,25.86 2.02,-1.65 3.96,-3.33 5.99,-5.01 -1.36,2.72 -2.51,5.5 -3.8,8.22 -0.34,-1.24 -0.9,-2.39 -1.75,-3.38 -2.5,3.14 -6.03,6.26 -7.2,10.25 -1.34,4.53 1.34,7.52 1,11.43 -0.49,5.33 -4.84,12.22 -6.69,17.2 -0.95,2.53 -1.78,5.21 -2.8,7.69 -0.83,1.95 -3.16,4.18 -3.85,5.86 0.27,-0.68 0.34,3.84 0.27,4.45 -0.44,3.99 -3.46,6.81 -4.53,10.36 -1.44,5.21 -2.29,11.05 -3.87,16.47 -2.26,-2.73 -3.5,-1.68 -6.52,-0.58 2.07,2.82 2.41,3.72 6.04,2.55 -3.36,11.78 -6.3,23.65 -8.88,35.64 -0.44,1.87 -1.95,15.6 -3.29,16.08 -2.92,1.12 -6.21,-5.5 -7.3,-7.28 -7.2,14.7 -7.54,35.99 -9.32,52.07 -1.99,18.79 -3.5,37.74 -3.33,56.64 0.1,18.27 -0.58,36.64 -0.17,54.92 0.1,4.77 0.75,8.88 2.17,13.38 1.02,3.04 2.97,5.47 1.85,8.81 -1.9,5.77 -5.77,1.05 -5.94,8.64 -0.34,25.06 5.21,52.34 10.63,76.76 2.6,11.87 8.05,21 13.19,31.97 0.83,1.65 2.99,4.67 2.34,6.69 -0.93,2.58 -4.28,1.61 -4.45,5.4 -0.07,1.92 1.85,3.72 2.43,5.5 1.26,3.45 1.19,7.59 1.75,11.21 1.17,-4.06 2.63,-8.1 4.02,-12.12 6.15,7.62 10.51,13.87 14.77,22.43 3.28,6.47 7.88,20.44 14.91,20.88 -0.58,-1.29 -0.41,-3.02 -1.17,-4.26 5.35,2.65 4.53,11.02 8.32,15.99 2.07,2.8 5.35,3.72 7.54,6.16 2.17,2.43 3.5,7.01 5.09,9.95 6.64,12.63 13.74,25.08 21.29,37.25 15.01,24.21 31.78,47.35 50.12,69.17 36.98,43.97 80.41,82.51 128.35,114.06 48.2,31.66 100.92,56.21 156.25,72.58 14.99,4.5 28.9,11.41 44.33,15.14 16.93,4.01 34.21,6.23 51.39,8.49 36.72,4.79 74.77,5.77 111.73,3.04 26.98,-2.02 53.75,-5.4 80.39,-10.03 10.58,-1.85 21.19,-3.89 31.7,-6.28 7.03,-1.63 14.91,-5.09 22.19,-5.26 2.12,-0.02 4.01,-0.02 5.96,1.15 2.53,1.51 3.26,7.3 4.94,8.15 3.36,1.56 4.53,-2.82 6.81,-3.43 2.17,-0.56 8.27,2.92 6.52,3.72 0.24,0 0.51,0 0.75,0 2.26,-2.92 7.3,-5.77 10.66,-8.22 -0.17,0.22 -0.44,0.41 -0.61,0.61 15.94,-6.91 30.61,-15.89 46.38,-23.36 7.88,-3.82 18.18,-4.43 25.3,-9.05 6.79,-4.48 11.31,-7.45 18.69,-9.83 3.19,-1.02 2.29,0.1 4.96,-1.92 1.17,-0.93 1.9,-2.97 3.43,-4.09 1.17,-0.87 5.62,-2.77 7.13,-3.02 3.53,-0.53 5.18,1.92 8.37,1.95 6.96,0.15 17.61,-6.06 23.14,-9.76 8.22,-5.5 15.16,-13.04 22.53,-19.54 -0.22,0.12 -0.49,0.29 -0.73,0.44 7.2,-6.16 17.83,-9.66 26.23,-14.36 23.89,-13.38 45.01,-32.02 64.87,-50.78 9.66,-9.15 19.05,-18.71 28.18,-28.49 8.71,-9.32 18.2,-17.13 27.42,-25.91 10.22,-9.85 15.82,-20.95 21.85,-33.55 5.64,-11.78 12.41,-17.52 23.31,-23.46 -4.43,11.85 -10.73,21.8 -17.28,32.7 3.96,-5.04 52.82,-67.83 41.51,-75.08 -5.28,-3.43 -12.34,3.19 -10.05,-6.08 2.24,-9.15 10.63,-19.03 15.16,-27.23 2.36,-4.11 4.69,-11.43 8.81,-14.4 3.36,-2.41 7.62,-2.16 10.8,-5.35 5.21,-5.13 7.13,-15.03 8.22,-21.82 -8.47,7.98 -20.12,16.57 -24.99,27.18 -4.53,9.83 -9.44,28.1 -20.34,32.43 -0.44,-3.36 1.17,-4.18 1.82,-7.3 0.75,-3.36 0.34,-3.43 0.41,-6.91 0.27,-6.57 2.68,-10.56 5.18,-16.45 2.87,-6.4 3.04,-12.02 6.71,-18.05 4.14,-6.89 7.98,-13.92 11.51,-21.12 14.82,-30.54 23.97,-63.38 28.88,-96.91 -2.85,2.85 -7.59,5.38 -8.88,9.42z"/>
  <path class="fil0" d="M1311.1 613.82c0.39,1.36 1.17,2.7 1.73,4.01 0.78,-1 1.51,-2.82 1.78,-4.01 -1.1,0 -2.51,-0.22 -3.5,0z"/>
  <path class="fil0" d="M889.13 58.78c-2.51,-1.29 -4.53,-1.29 -7.3,-0.88 2.51,1.63 4.62,2.34 7.3,0.88z"/>
  <path class="fil0" d="M79.56 363.8c10.73,-20.53 21.46,-41.02 33.26,-60.88 14.94,-25.04 31.29,-51.05 52.09,-71.7 17.08,-16.98 34.6,-33.5 51.46,-50.75 3.92,-3.99 7.76,-7.96 11.73,-11.92 5.43,-5.4 13.07,-10.39 14.31,-18.1 -10.56,0.17 -20.1,12.58 -27.66,19.49 -9.54,8.78 -18.76,17.86 -27.71,27.25 -17.76,18.69 -34.31,38.59 -49.56,59.34 -14.82,20.1 -28.49,41.05 -40.73,62.75 -5.21,9.25 -9.22,18.54 -13.14,27.15 -5.38,11.85 -11.85,23.84 -13.92,36.74 3.84,-6.2 6.76,-12.77 9.88,-19.37z"/>
  <path class="fil0" d="M1270.69 460.03c-0.78,9.27 1,19.03 8.78,25.04 8.66,-22.02 3.97,-45.67 -1.17,-67.96 -4.94,-22.04 -11.46,-48.59 -24.04,-67.47 -1.85,8.95 1.17,15.35 3.26,24.21 2.17,9.1 4.45,18.13 6.47,27.23 4.4,19.32 7.76,39.05 6.69,58.95z"/>
  <path class="fil0" d="M478.13 42.12c2.33,1.8 3.36,4.55 6.54,5.16 2.51,0.51 8.15,-2.41 10.32,-3.11 9.05,-2.92 18.18,-5.5 27.4,-7.76 14.92,-3.68 33.48,-3.72 47.11,-11.32 -12.55,-3.89 -28.57,-0.17 -41.63,1.24 -12.07,1.24 -24.48,2.7 -36.37,5.25 -4.48,0.97 -21.63,4.16 -13.36,10.53z"/>
  <path class="fil0" d="M1116.45 117.45c7.71,8.56 15.43,17.25 22.63,26.23 2.53,3.21 14.33,22 16.84,19.95 4.79,6.93 6.64,14.23 14.87,16.86 0.49,-8.46 -6.98,-14.09 -11.58,-21.36 -5.96,-9.25 -13.33,-17.23 -20.39,-25.69 -7.59,-9.27 -15.08,-18.71 -22.7,-27.96 -6.47,-7.83 -12.67,-17.3 -20.19,-24.06 -2.09,-1.87 -5.38,-4.53 -8.47,-3.26 -4.7,1.87 -2.43,4.16 -0.49,7.08 2.85,4.33 6.42,7.98 9.95,11.7 6.52,6.84 13.07,13.7 19.54,20.51z"/>
  <path class="fil0" d="M1275.45 516.69c-0.24,14.06 -1.51,28.25 -3.02,42.26 -0.75,6.84 -2.41,13.92 -2.53,20.78 -0.05,4.55 2.02,12.24 7.06,6.18 3.11,-3.79 2.6,-15.72 3.19,-20.22 1,-7.49 2.02,-15.03 2.6,-22.63 0.51,-6.76 0.93,-13.63 1.41,-20.46 0.61,-9.39 3.19,-22.29 0.78,-31.24 -1.6,-6.04 -5.3,-7.11 -7.54,-0.9 -1.12,2.99 -1.26,5.16 -1.51,8.15 -0.34,5.99 -0.27,12.07 -0.44,18.08z"/>
  <path class="fil0" d="M198.83 1017.94c-2.67,-3.02 -18.27,-18.95 -16.08,-21.6 -11.48,-13.99 -20.46,-30.66 -33.6,-43.04 7.37,17.78 20.12,33.84 31.75,49.1 5.86,7.74 12.07,15.21 18.44,22.58 5.86,6.89 11.39,14.79 19.71,18.68 -3.87,-9.85 -13.24,-17.66 -20.22,-25.72z"/>
  <path class="fil0" d="M872.02 22.36c9.05,0.63 21.53,3.99 30.03,0.44 -6.38,-5.21 -8.49,-1.51 -16.28,-1.92 -10.73,-0.49 -11.9,-8.57 -18.2,-14.84 -4.02,-4.02 -17.28,-10.05 -18.61,-2.24 -1.41,8.1 17.54,15.3 23.07,18.56z"/>
  <path class="fil0" d="M1194.48 218.3c2.19,2.14 2.12,-2 4.53,-1.46 3.63,0.83 5.21,5.21 7.03,8.05 4.21,6.35 8.49,12.65 13.41,18.47 -0.83,-10.24 -10.22,-34.06 -20.95,-37.06 -3.41,-0.9 -10.05,-2.36 -12.24,1.32 -3.02,5.18 5.52,7.96 8.22,10.68z"/>
  <path class="fil0" d="M1301.61 654.7c-5.38,7.59 -3.7,20.8 -4.7,30.36 -0.73,7.35 -1.51,14.7 -2.24,22 2.67,-8.57 5.18,-16.96 6.86,-25.82 1.51,-8.44 5.38,-19.51 0.07,-26.54z"/>
  <path class="fil0" d="M1294.16 708.71c-0.27,1.8 0.39,-1.15 0.51,-1.65 -0.78,0.73 -0.95,1.26 -0.51,1.65z"/>
  <path class="fil0" d="M219.78 216.67c-6.52,5.72 -14.23,11.21 -19.78,18.08 -3.09,3.82 -3.36,11.56 3.87,8.4 4.11,-1.73 10.32,-11.53 12.99,-14.31 1.75,-1.85 5.72,-5.13 6.28,-7.52 0.51,-1.87 0.17,-7.67 -3.36,-4.65z"/>
  <path class="fil0" d="M424.65 56.16c6.04,2.21 6.13,-4.43 7.13,-8.37 -8.54,-0.49 -13.33,3.5 -20.95,6.18 -7.13,2.53 -11.22,2.61 -15.52,9.27 9.39,-2.19 19.47,-10.61 29.34,-7.08z"/>
  <path class="fil0" d="M1058.52 56.76c6.47,5.69 13.16,14.09 21.39,16.89 -1.44,-10.12 -17.93,-20.07 -25.57,-26.45 -3.09,-2.55 -10.63,-6.93 -8.81,0.27 1.19,4.53 9.47,7.28 12.99,9.29z"/>
  <path class="fil0" d="M914.19 40.61c2.26,5.5 14.33,3.82 18.2,3.68 -1.78,-3.21 -10.08,-18.71 -15.86,-15.62 -1.41,0.73 -0.56,3.58 -1.34,4.72 0.1,-0.17 -4.6,5.67 -4.43,4.06 -0.1,0.88 3.09,2.21 3.43,3.16z"/>
  <path class="fil0" d="M856.33 1195.65c0,0.24 -10.63,4.97 -12.46,5.72 -9.66,4.04 -23.82,5.55 -31.36,12.43 8.44,1.46 17.78,-3.92 25.72,-6.84 9.32,-3.38 18.44,-6.96 27.59,-10.85 -3.02,-0.14 -6.86,-0.22 -9.49,-0.46z"/>
  <path class="fil0" d="M1173.68 277.81c-0.66,6.08 6.71,9.68 10.85,12.31 -0.27,-8.88 -2.53,-14.84 -8.56,-21.39 -0.75,3.02 -1.95,5.96 -2.29,9.07z"/>
  <path class="fil0" d="M1304.29 733.17c-1.34,7.15 -2.92,14.23 -3.36,21.43 5.21,-13.63 6.54,-29.12 8.54,-43.55 -1.48,6.13 -6.35,16.93 -5.18,22.12z"/>
  <path class="fil0" d="M12.41 501.92c0.95,-6.47 1.85,-12.97 2.77,-19.42 -4.18,14.89 -5.79,25.64 -7.37,41.07 1.58,-7.18 3.53,-14.4 4.6,-21.65z"/>
  <path class="fil0" d="M90.63 830.17c4.53,10.39 8.44,20.95 13.48,31.05 2.6,-13.58 -3.87,-22.65 -13.48,-31.05z"/>
  <path class="fil0" d="M346.3 84.72c1.07,-1.04 1.99,-2.21 2.85,-3.48 -5.38,0.1 -13.84,8.1 -16.93,6.38 -4.14,3.82 -8.15,7.66 -12.24,11.48 9.12,-4.45 17.93,-8.47 26.33,-14.38z"/>
  <path class="fil0" d="M117.86 895.21c0,-1.34 4.45,1.41 2.46,-5.48 -1.68,-5.38 -4.97,-10.46 -6.98,-15.77 -7.79,8.96 4.62,12.78 4.53,21.24z"/>
  <path class="fil0" d="M269.76 1084.6c-1.75,-1.04 -7.44,-4.77 -8.61,-2.63 -0.78,1.26 2.41,5.82 3.58,6.74 5.52,4.18 15.52,2.41 5.03,-4.11z"/>
  <path class="fil0" d="M40.07 466.3c0,2 0.51,3.84 1.44,5.55 6.11,-3.92 5.11,-5.11 3.7,-11.8 -1.68,1.97 -4.02,3.82 -5.14,6.26z"/>
  <path class="fil0" d="M494.38 1207.64c-6.25,-2.92 -13.8,-3.26 -20.44,-4.96 6.2,3.29 15.91,8.22 23.07,7.74 -0.68,-1.07 -1.61,-1.97 -2.63,-2.77z"/>
  <path class="fil0" d="M60.12 404.07c-2.94,5.89 -3.5,12.19 -4.53,18.59 3.75,-7.37 7.2,-14.07 7.11,-22.46 -0.9,1.21 -1.75,2.5 -2.58,3.87z"/>
  <path class="fil0" d="M878.13 1200.56c-2.75,0.95 -4.36,2.19 -6.71,3.87 5.82,0.53 10.85,0.36 14.26,-4.53 -3.19,-0.63 -4.43,-0.15 -7.54,0.66z"/>
  <path class="fil0" d="M954.75 54.31c-5.11,-6.11 -9.22,-7.81 -7.88,2.09 2.63,-0.68 5.3,-1.39 7.88,-2.09z"/>
  <path class="fil0" d="M1246.79 332.36c-1.58,-7.93 -5.77,-15.28 -9.05,-22.72 2.09,7.25 2.94,18.18 9.05,22.72z"/>
  <path class="fil0" d="M397.42 72.94c1.75,-1.7 3.43,-3.43 5.21,-5.16 -6.54,1.49 -12.41,2.12 -16.62,7.93 4.62,0.63 7.13,-0.95 11.41,-2.77z"/>
  <path class="fil0" d="M283.26 122.97c-6.13,-0.39 -6.64,-0.71 -10.9,3.87 5.04,2.78 6.55,-0.39 10.9,-3.87z"/>
  <path class="fil0" d="M10.24 772.7c0.49,1.41 1.44,2.58 2.6,3.55 2.68,-6.28 2.75,-6.86 -0.83,-12.63 -0.68,3.02 -1.6,5.96 -1.78,9.08z"/>
  <path class="fil0" d="M134.28 919.05c-1.85,-1.51 -3.68,-3.02 -5.52,-4.53 0.83,2.97 2.34,12.41 6.47,12.72 4.53,0.32 0.17,-5.89 -0.95,-8.2z"/>
  <path class="fil0" d="M238.4 1062.53c-1,4.87 1,5.21 4.87,8.37 1.51,-4.84 -1.07,-5.43 -4.87,-8.37z"/>
  <path class="fil0" d="M237.33 191.7c5.35,-2.17 7.06,-4.77 9.78,-9.78 -4.26,3.04 -7.86,4.72 -9.78,9.78z"/>
  <path class="fil0" d="M821.12 1221.49c-1.56,0.05 -3.02,0.49 -4.36,1.31 3.29,4.55 3.36,4.36 8.83,2.72 -1.34,-1.56 -2.8,-2.89 -4.48,-4.04z"/>
  <path class="fil0" d="M298 109.68c-4.69,1.36 -5.35,3.33 -7.81,7.39 4.79,-2.14 6.03,-2.55 7.81,-7.39z"/>
  <path class="fil0" d="M109.59 405.52c5.25,0.22 4.36,-1.12 4.75,-6.03 -4.18,1.78 -5.01,1.34 -4.75,6.03z"/>
  <path class="fil0" d="M1294.55 777.86c-0.07,1.07 0,2.09 0.27,3.14 1.02,-2.85 1.85,-4.4 1.41,-7.42 -0.56,1.43 -1.17,2.85 -1.68,4.28z"/>
  <path class="fil0" d="M443.53 56.5c1.34,-1.02 2.51,-2.24 3.41,-3.7 -4.23,-1.07 -4.43,-1.07 -7.27,2.24 1.19,0.83 2.43,1.31 3.87,1.46z"/>
  <path class="fil0" d="M992.39 98.08c-1.65,-0.85 -3.43,-1.46 -5.18,-1.85 2.02,4.89 2.33,4.72 7.61,5.13 -0.58,-1.24 -1.41,-2.38 -2.43,-3.29z"/>
  <path class="fil0" d="M684.43 1226.5c2.26,1.09 4.43,1.02 6.62,-0.2 -2.26,-0.85 -4.43,-0.78 -6.62,0.2z"/>
  <path class="fil0" d="M34.82 488.71c0.22,0.97 0.66,1.85 1.34,2.58 0.73,-0.36 2.33,-1.75 2.85,-2.43 -0.85,-1.36 -3.84,-3.26 -4.18,-0.14z"/>
  <path class="fil0" d="M827.28 40.8c1.73,0.29 3.5,0.27 5.25,-0.12 -3.02,-3.53 -3.02,-4.06 -7.54,-3.36 0.51,1.34 1.26,2.48 2.29,3.48z"/>
  <path class="fil0" d="M-0 707.52c0.44,1.48 1.12,2.82 2.12,3.99 1.92,-4.28 1.85,-4.55 -0.78,-8.51 -0.73,1.46 -1.17,2.94 -1.34,4.53z"/>
  <path class="fil0" d="M1277.06 799.37c2.41,-1.65 2.68,-1.65 2.19,-4.53 -2.02,0.9 -2.7,2.41 -2.19,4.53z"/>
  <path class="fil0" d="M104.55 862.39c0,-0.53 -0.17,-0.66 -0.44,-1.17 -0.17,0.51 -0.07,0.88 0.44,1.17z"/>
  <path class="fil0" d="M113.11 873.6c-2.87,-3.77 -5.72,-7.49 -8.57,-11.22 -0.17,5.84 3.09,9.39 8.57,11.22z"/>
  <path class="fil0" d="M1236.48 306.89c-1.34,-3.67 -2.6,-7.3 -3.94,-11 -3.09,1.92 1.68,8.81 3.94,11z"/>
  <path class="fil0" d="M1236.72 307.35c0.34,0.78 0.68,1.51 1.02,2.29 -0.68,-2.29 -1.19,-2.31 -1.02,-2.29z"/>
  <path class="fil0" d="M267.33 164.06c-3.11,0.46 -3.68,1.1 -5.35,3.92 2.75,-0.78 3.36,-1.8 5.35,-3.92z"/>
  <path class="fil0" d="M947.04 69.81c-1.51,-2.58 -2.36,-3.53 -5.21,-4.7 1.19,3.53 1.68,3.82 5.21,4.7z"/>
  <path class="fil0" d="M1003.46 1155.16c2.41,1 1.85,1.31 3.77,-1.56 -1.85,-0.41 -3.09,0.08 -3.77,1.56z"/>
  <path class="fil0" d="M821.12 1201.15c0.68,-0.93 1.36,-1.75 2.02,-2.58 -0.83,0.66 -1.58,1.51 -2.02,2.58z"/>
  <path class="fil0" d="M1259.01 875.53c-0.32,0.85 -0.56,1.7 -0.83,2.53 3.63,0.14 4.14,-0.78 0.83,-2.53z"/>
  <path class="fil0" d="M255.26 141.41c-1.78,0 -2.94,0.85 -3.5,2.65 1.56,-0.49 2.34,-1.41 3.5,-2.65z"/>
  <path class="fil0" d="M713.6 1223.14c0.34,0.75 0.68,1.56 0.9,2.33 1.61,-1.14 1.34,-2.28 -0.9,-2.33z"/>
  <path class="fil0" d="M6.81 745.04c0.17,0.8 0.34,1.66 0.51,2.41 0.39,-0.02 0.73,-0.1 1.17,-0.19 -0.51,-2.75 0.08,-2.58 -1.68,-2.22z"/>
  <path class="fil0" d="M47.37 379.78c0,0.44 3.04,0 0.58,-1.32 -0.17,0.44 -0.34,0.85 -0.58,1.32z"/>
  <path class="fil0" d="M1176.99 188.71c-3.31,-2.7 -4.96,0.78 -1.29,2.85 0.44,-0.88 1.12,-1.92 1.29,-2.85z"/>
  <path class="fil0" d="M1266.23 862.63c0.66,-0.51 1.34,-0.95 2.02,-1.44 -0.34,-0.19 -0.75,-0.34 -1.19,-0.44 -0.22,0.63 -0.49,1.26 -0.83,1.87z"/>
  <path class="fil0" d="M1038.83 82.24c-0.68,-0.05 -1.34,-0.19 -2.02,-0.27 0.24,0.41 0.41,0.85 0.68,1.24 0.41,-0.29 0.9,-0.63 1.34,-0.97z"/>
  <path class="fil0" d="M442.26 45.43c-0.58,0.24 -1.41,-0.8 -0.75,0.34 0.58,1.17 0.17,-0.1 0.75,-0.34z"/>
  <path class="fil0" d="M81.48 487.37c2.34,-0.63 2.29,0.02 1.61,-3.19 -1.61,0.71 -2.12,1.8 -1.61,3.19z"/>
  <path class="fil0" d="M798.83 1209.62c-0.07,-0.51 1.1,-0.97 -0.17,-0.66 -1.24,0.29 0.1,0.14 0.17,0.66z"/>
  <path class="fil0" d="M339.32 99.51c-0.41,0.27 -0.73,0.51 -1.17,0.73 1.34,0.88 0.66,-0.1 1.17,-0.73z"/>
  <path class="fil0" d="M1031.12 1136.52c-0.17,0.8 -0.44,1.6 -0.66,2.39 5.6,-2.04 1.07,-3.09 0.66,-2.39z"/>
  <path class="fil0" d="M1013.75 1147.5c0,1.24 0.61,1.7 1.78,1.36 -0.27,-2.48 -1.1,-1.02 -1.78,-1.36z"/>
  <path class="fil0" d="M37.66 510.71c-0.27,0.44 -0.44,0.87 -0.61,1.34 0.61,0.17 1.17,0.34 1.85,0.46 0.44,-1.26 0,-1.82 -1.24,-1.8z"/>
  <path class="fil0" d="M1084.6 135.28c1.92,3.7 3.09,-1.68 3.43,-1.85 -0.17,0.05 -5.38,-1.73 -3.43,1.85z"/>
  <path class="fil0" d="M462.04 46.71c-0.75,-0.68 -1.41,-0.56 -1.92,0.39 0.73,0.61 1.41,0.51 1.92,-0.39z"/>
  <path class="fil0" d="M1263.87 584.82c0.78,1.34 1.68,-0.15 1.85,-0.75 -0.66,-0.22 -1.34,-0.39 -1.9,-0.58 0,0.46 0,0.85 0.05,1.34z"/>
  <path class="fil0" d="M1259.96 409.59c-0.34,-0.44 0,-1.63 -0.58,-0.78 -0.58,0.93 0.24,0.27 0.58,0.78z"/>
  <path class="fil0" d="M416.43 1181.22c-0.15,-0.63 1.51,-0.39 -0.05,-0.73 -1.44,-0.27 0,0.17 0.05,0.73z"/>
  <path class="fil0" d="M1196.77 223.16c-0.44,-0.8 -0.85,-1.6 -1.19,-2.46 -0.44,1.46 -0.1,2.26 1.19,2.46z"/>
  <path class="fil0" d="M1195.58 220.71c-0.17,-1.56 0,-0.58 -0.44,-1.39 -0.49,0.36 -0.32,0.88 0.44,1.39z"/>
  <path class="fil0" d="M1087.18 112.31c-0.66,0.85 -0.39,1.29 0.68,1.39 0.93,-1.31 -0.17,-0.71 -0.68,-1.39z"/>
  <path class="fil0" d="M1290.88 793.29c0.32,-0.29 0.66,-0.61 1,-0.9 -0.34,-0.17 -0.56,-0.27 -0.9,-0.44 -0.1,0.44 -0.1,0.9 -0.1,1.34z"/>
  <path class="fil0" d="M24.82 567.74c0.27,-0.34 0.51,-0.71 0.78,-1.07 -0.34,-0.02 -0.78,-0.15 -1.12,-0.19 0.1,0.44 0.27,0.88 0.34,1.26z"/>
  <path class="fil0" d="M1251.98 342.73c-0.22,-0.34 -0.56,-0.66 -0.83,-1 -0.41,2.48 0.17,0.88 0.83,1z"/>
  <path class="fil0" d="M1304.04 648.03c0.51,-0.19 1.02,-0.39 1.51,-0.58 -2.68,-0.85 -3.19,-0.63 -1.51,0.58z"/>
  <path class="fil0" d="M1084.94 1090.2c-0.51,0.83 -0.95,1.7 -1.46,2.55 2.19,0.32 1.46,0.63 2.97,-2.36 -0.51,-0.19 -1,-0.27 -1.51,-0.19z"/>
  <path class="fil0" d="M834.31 1222.97c0.34,-0.29 0.68,-0.61 1,-0.93 -1.78,-0.75 -0.66,0.12 -1,0.93z"/>
  <path class="fil0" d="M530.78 1225.55c-0.24,1.17 0.14,1.53 1.34,1.04 0.27,-1.21 -0.17,-1.56 -1.34,-1.04z"/>
  <path class="fil0" d="M1169.93 242.51c1.17,0.07 1.51,-0.49 1.02,-1.6 -1.78,0.07 -0.61,0.75 -1.02,1.6z"/>
  <path class="fil0" d="M456.93 1197.55c0.58,-0.2 1.51,0.71 0.85,-0.32 -0.78,-1.09 -0.27,0.07 -0.85,0.32z"/>
  <path class="fil0" d="M251.63 1074.29c0.27,-0.63 1.51,-0.32 0.34,-0.85 -1.24,-0.58 -0.17,0.27 -0.34,0.85z"/>
  <path class="fil0" d="M738.15 1219.2c0.61,0.14 1.17,0.32 1.78,0.44 -0.1,-1.19 -0.68,-1.34 -1.78,-0.44z"/>
  <path class="fil0" d="M294.48 153.82c-0.83,-0.14 -1.78,-0.34 -2.6,-0.49 2.02,1.51 1.44,1.6 2.6,0.49z"/>
  <path class="fil0" d="M1272.7 601.17c0.73,-1.12 0.51,-1.63 -0.68,-1.63 -0.78,1.02 -0.51,1.53 0.68,1.63z"/>
  <path class="fil0" d="M845.89 43.92c-0.85,-1.78 -0.29,-1.44 -3.14,-0.68 2.19,2.02 1.51,1.95 3.14,0.68z"/>
  <path class="fil0" d="M261.8 180.97c-0.61,-0.93 -1.17,-1.02 -1.78,-0.27 0.17,0.41 0.44,0.78 0.61,1.22 0.39,-0.29 0.83,-0.63 1.17,-0.95z"/>
  <path class="fil0" d="M825.33 1197.04c-1.02,0.44 -1.58,0 -2.19,1.53 3.63,-3.04 0.44,-0.53 2.19,-1.53z"/>
  <path class="fil0" d="M291.05 153.24c1.27,-1.09 -1.19,0.66 -2.36,1.6 1.1,-0.24 1.85,-0.78 2.36,-1.6z"/>
  <path class="fil0" d="M286.62 156.35c0.66,-0.51 1.34,-1.02 2.07,-1.51 -1.34,0.12 -2.07,0.63 -2.07,1.51z"/>
  <path class="fil0" d="M1204.48 330.58c-0.61,-0.39 -1.19,-0.73 -1.78,-1.07 -0.19,0.44 -0.24,0.85 -0.41,1.27 0.73,1.04 1.51,1 2.19,-0.2z"/>
  <path class="fil0" d="M1265.48 693.8c-1.17,-2 -4.11,-19.37 0.75,-14.65 4.11,3.89 0.27,10.41 -0.75,14.65zm-4.84 13.89c-0.44,-1.24 -0.85,-2.5 -1.19,-3.72 2.02,2.41 3.87,3.09 1.19,3.72zm-1.26 97.06c-1.58,4.96 -4.11,9.51 -6.23,14.18 1.8,-10.44 4.53,-18.49 8.56,-28.15 -0.56,4.7 -0.85,9.47 -2.33,13.97zm-12.82 -44.65c-1.27,1.36 -2.78,2.29 -4.62,2.78 0.27,-3.02 0.66,-5.86 3.02,-7.88 1,1.58 1.51,3.31 1.61,5.11zm-10.22 161.34c-1.85,-1.17 -3.7,-2.38 -5.55,-3.55 2.92,1 5.55,0.68 5.55,3.55zm-8.15 -25.74c0.61,-0.24 0.83,-1.48 0.93,-0.34 0.07,1.14 -0.27,0.07 -0.93,0.34zm-4.36 21.02c-10.07,13.94 -20.53,26.3 -32.26,38.93 -1.78,1.9 -13.07,16.3 -13.41,6.5 -0.17,-4.99 11.07,-8.68 5.03,-12.16 8.1,-6.64 16.6,-12.65 23.53,-20.56 6.3,-7.18 11.73,-14.72 18.88,-21.05 -0.51,2.61 -0.12,6.04 -1.78,8.35zm-49.03 56.35c-4.7,4.92 -9.49,9.76 -14.53,14.28 4.21,-5.5 7.98,-13.77 14.18,-17.11 0.41,0.95 0.51,1.85 0.34,2.82zm-26.08 26.42c3.29,-3.24 6.47,-6.47 9.66,-9.68 -2.02,3.55 -6.64,6.74 -9.66,9.68zm-9.9 20.51c-1.9,3.33 -2.51,-2.53 -2.34,-2.41 0.44,0.51 4.36,-1 2.34,2.41zm-281.97 166.79c-0.9,-0.71 -0.85,-1.29 0.44,-1.63 -0.1,0.02 1.68,0.95 -0.44,1.63zm-753.07 -394.43c0.51,1.68 1.12,3.31 1.68,4.96 -1,-1.41 -1.41,-3.16 -1.68,-4.96zm5.47 39.32c-2.36,-1.43 -2.36,-1.43 -1.43,-4.01 2.26,0.71 2.77,2.04 1.43,4.01zm-12.24 -57.27c0,-1.34 0.24,-2.68 0.39,-4.02 1.36,4.84 2.63,9.59 4.14,14.38 -1.51,-2.77 -4.87,-6.98 -4.53,-10.36zm-11.56 -2.17c-2.87,-3.36 -6.47,-5.4 -4.14,-9.39 2.36,3.38 6.21,5.4 4.14,9.39zm-6.3 -93.55c-3.04,-15.89 -10.63,-32.43 -3.94,-48.32 3.87,5.16 2.19,17.35 2.58,23.82 0.61,8.54 1.36,17.08 2.29,25.64 -0.27,-0.36 -0.61,-0.78 -0.92,-1.15zm-0.75 62.7c0.07,-0.41 0.07,-0.87 0.17,-1.34 1.24,1 0.17,0.71 -0.17,1.34zm-3.29 -10.97c-0.73,-0.32 -1.41,-0.73 -2.07,-1.1 1.07,-1.31 2.17,-1.17 3.33,0.44 -0.44,0.22 -0.83,0.44 -1.26,0.66zm-5.25 -108.91c1.34,-1.21 2.67,-2.5 4.01,-3.74 4.91,5.74 1.92,8.39 -4.01,3.74zm5.86 -24.33c-0.85,0.34 -0.51,1.41 -1.85,0.51 0.41,-1.02 1,-1.19 1.85,-0.51zm-1.17 -26.76c1.24,-1.87 2.58,-3.68 3.92,-5.43 -0.24,3.77 0.51,21.34 -3.6,22.63 -2.6,0.8 -1.78,-14.94 -0.32,-17.2zm4.87 -48.79c0.83,-1.53 3.41,0.1 3.92,0.85 0.92,1.34 -2.26,13.96 -2.36,13.96 -4.87,0.61 -2.9,-12.46 -1.56,-14.82zm46.16 -144.33c-0.07,0.12 -0.07,0.24 -0.17,0.34 0.1,-0.1 0.1,-0.22 0.17,-0.34zm196.76 -244.45c6.18,-4.38 11.29,-9.76 18.59,-12.31 -5.18,3.5 -13.58,11.07 -18.59,12.31zm728.98 26.18c4.52,-1.68 7.81,4.26 4.62,7.18 -2.19,-1.87 -4.36,-3.82 -6.54,-5.69 0.68,-0.49 1.24,-1 1.92,-1.48zm18.37 13.57c6.42,5.09 11.07,12.34 16.08,18.74 -5.86,-2.75 -20.39,-12.97 -20.61,-19.27 1.51,0.17 3.02,0.37 4.53,0.53zm1.92 -11.46c1.78,0.12 3.5,0.19 5.35,0.29 -0.58,3.09 0.17,6.03 -3.53,5.6 -3.02,-0.36 -1.83,-3.65 -1.83,-5.89zm17.25 18.05c8.22,3.07 12.67,9.46 17.37,16.67 4.53,6.98 11.15,14.79 12.8,22.97 -6.59,-1.82 -12.8,-9.92 -16.81,-14.45 -6.47,-7.4 -13.7,-15.45 -13.36,-25.18zm16.69 -8.96l-6.47 -5.38c3.19,0.53 7.5,-0.07 6.47,5.38zm27.18 67.81c2.33,3.6 4.74,7.15 7.1,10.73 -1.51,-1.92 -8.61,-9.15 -7.1,-10.73zm9.88 20.88c-1.44,-1.87 -2.95,-3.7 -4.45,-5.55 5.01,-3.24 8.64,1.68 4.45,5.55zm53.72 51.31c0.58,-1.34 0.83,-2.75 0.75,-4.26 11.07,6.33 1.68,10.56 2.87,19.27 9.61,-5.89 10.44,0.49 13.79,9.2 3.36,8.88 8.4,18.54 7.15,28.1 -2.63,-5.47 -4.79,-11.15 -7.37,-16.62 -1.46,-2.89 -6.81,-11.82 -8.32,-3.6 -0.51,2.68 13.24,31.87 2.43,25.21 -3.43,-2.09 -4.84,-11.53 -5.96,-14.97 -2.34,-7.01 -4.7,-13.94 -7.03,-20.93 -3.36,-10.02 -10.07,-17.05 1.68,-21.41zm27.59 82.99c1.68,5.6 1.07,11.49 1.34,17.23 -2.85,-3.21 -4.02,-9.63 -5.62,-13.72 -1.36,-3.41 -6.79,-11.9 -3.26,-13.75 6.59,-3.55 6.59,7.06 7.54,10.24zm2 -21.07c0.34,0.34 0.68,0.68 1.02,1 -0.44,0.12 -0.83,0.24 -1.26,0.34 0.07,-0.44 0.14,-0.9 0.24,-1.34zm15.16 90.44c-3.53,-13.31 -7.54,-26.47 -11.97,-39.44 3.53,4.33 4.87,12.94 6.45,18.25 2.12,6.98 3.96,14.02 5.52,21.19zm-4.67 -44.33c1.34,0.56 1.51,1.6 0.58,3.09 -1.6,-0.85 -0.78,-1.51 -0.58,-3.09zm14.4 19.78c2.12,2.87 1,4.53 0.17,7.93 -1.51,-0.8 -2.92,-1.56 -4.43,-2.36 1.41,-1.85 2.85,-3.72 4.26,-5.57zm-33.36 408.06c-0.34,1 -0.9,1.17 -1.75,0.49 0,-0.32 0,-0.73 0,-1.07 0.58,0.17 1.17,0.41 1.75,0.58zm13.92 68.32c-0.42,0.78 -0.85,1.58 -1.24,2.39 -0.51,-1.6 -0.1,-2.41 1.24,-2.39zm25.64 -228.05c-0.68,0.46 -0.08,1.15 -1,0.95 0.32,-3.26 -0.08,-0.14 1,-0.95zm11.07 -30.95c0.44,-1.92 1,-3.77 1.78,-5.57 0.66,4.97 1.65,7.2 -1.6,11.02 -0.25,-1.8 -0.34,-3.6 -0.17,-5.45zm1.34 -23.33c1.78,0.1 1.27,-0.32 1.27,2.48 -1.68,0.37 -2.12,-0.49 -1.27,-2.48zm-294.55 -526.91c-0.58,0.32 -0.34,1.63 -0.9,0.51 -0.61,-1.19 0.32,-0.19 0.9,-0.51zm310.29 613.6c-5.86,17.45 -9.37,37.5 -17.98,53.82 -0.85,-8.81 2.56,-17.88 4.57,-26.57 1.51,-6.79 2.12,-16.35 4.97,-21.97 -0.83,-7.66 1.41,-19.47 2.02,-28.35 0.56,-9.68 0,-18.61 4.53,-27.25 4.43,-8.4 2.07,-17.4 3.58,-26.62 1.51,-9.47 4.69,-18.61 6.64,-28 -10.88,0 -21.9,0 -32.78,0 0,-7.98 -0.24,-15.99 -0.58,-23.96 -0.17,-3.97 -0.44,-7.93 -0.68,-11.92 -0.15,-2 -1,-6.13 -0.58,-7.86 0.32,-1.17 2.77,-2.09 2.85,-3.43 0.27,-5.99 -3.26,-11.36 -3.53,-17.86 -0.24,-8.39 -1.85,-16.47 -2.16,-24.74 -0.34,-6.86 2.94,-11.05 0.75,-17.28 -2.26,-6.47 -2.94,-5.25 2.19,-9.78 2.07,-1.9 3.53,-0.05 3.41,-3.53 -0.15,-4.02 -2.92,-1.05 -4.26,-3.38 -2.94,-5.03 4.38,-3.24 4.77,-8.25 0.44,-5.21 -7.78,-1.48 -9.9,-5.55 -0.73,-1.46 0.17,-4.16 0.51,-5.62 0.44,-2.09 4.96,-7.59 4.96,-8.59 0.07,-3.31 -6.81,-3.72 -7.13,-8.85 -0.08,-2.41 1.95,-4.77 2.77,-6.91 1.51,-4.04 2.24,-7.83 2.19,-12.14 -0.61,-17.08 -7.88,-36.13 -13.02,-52.36 -5.52,-17.71 -11.9,-35.21 -19.34,-52.16 -5.55,-12.73 -12.24,-24.79 -19.12,-36.72 -3.68,-6.4 -7.2,-13.41 -12.58,-18.44 -2,9.15 2.26,19.39 3.94,28.49 -2.41,-8.88 -5.04,-3.84 -10.9,-2.41 -6.72,1.61 -7.2,-4.14 -10.05,-9.95 -4.38,-8.93 -8.95,-17.64 -13.82,-26.25 -3.29,-5.94 -6.98,-11.53 -10.39,-17.2 -2.29,-3.82 -2.87,-9.54 2.89,-6.89 5.38,2.48 10.25,11.34 13.87,15.64 4.09,-4.06 -4.62,-15.38 -8.56,-17.54 -6.52,-3.7 -18.1,-6.47 -20.29,-14.18 8.81,3.53 10.58,9.51 18.95,1.31 -4.87,-4.21 -9.88,-7.52 -12.85,-13.36 -5.43,-11.17 -8.95,-23.41 -14.91,-34.43 -7.11,-13.38 -28.4,-25.6 -40.73,-33.63 1.95,3.68 3.63,7.47 5.35,11.29 5.96,-3.14 4.62,6.23 3.7,8.93 -7.61,-7.08 -15.94,-10.17 -18.18,-21.07 -1.26,-5.89 -0.68,-5.94 -6.71,-8.98 -5.69,-2.92 -5.62,-2.36 -5.96,-8.71 3.67,0.88 7.3,1.9 10.9,2.94 0.44,-4.96 3.19,-12.85 -2.67,-15.52 -3.09,-1.34 -8.88,1.7 -11.32,-0.51 -2.12,-1.95 -0.44,-5.77 -0.27,-8.15 0.44,-7.37 -1.34,-12.94 -4.6,-19.47 -1,2.67 -1.82,5.55 -3.29,8.1 -1.07,2.14 -5.77,5.64 -6.26,7.61 -1.12,4.55 5.43,8.4 5.01,13.07 -0.75,6.98 -4.45,4.23 -8.54,2.22 -4.14,-2.04 -9.15,-2.6 -12.85,-5.4 -4.53,-3.41 -6.08,-9.15 -10.39,-12.99 -5.69,-5.23 -12.48,-9.54 -18.85,-14.06 -4.62,-3.29 -34.18,-26.52 -37.47,-19.12 -1.85,4.11 6.47,6.86 9.05,9.07 5.62,4.87 10.07,11.02 15.69,15.89 11.46,9.86 23.87,18.61 35.45,28.3 5.62,4.72 11.05,9.59 16.18,14.89 2.58,2.63 12.75,10.97 12.41,14.81 -0.51,7.08 -8.54,1.15 -11.39,-0.68 -4.89,-3.07 -9.25,-7.83 -15.6,-6.18 0.66,1.7 1.34,3.46 2,5.16 -8.37,-6.47 -16.93,-12.75 -25.57,-18.78 8.81,3.43 6.64,-3.94 2.12,-8.35 -4.65,-4.6 -11.34,-6.2 -17.62,-7.08 1.41,3.19 3.36,6.2 5.72,8.76 -4.65,-3.02 -9.25,-5.94 -13.87,-8.88 2.36,-0.07 4.69,-0.17 7.06,-0.24 -5.86,-2.12 -5.43,-9.29 -11.24,-12.68 -1.51,-0.88 -15.08,-5.94 -15.43,-3.99 -0.39,2.46 3.63,4.31 3.46,7.2 -7.88,-4.55 -15.77,-8.91 -23.8,-13.07 -7.32,-3.85 -17.96,-6.93 -24.43,-12 -4.53,-3.6 -6.25,-7.54 -12.55,-8.32 -0.68,0.53 -1.34,1.15 -2.02,1.68 -1.92,-0.85 -3.92,-1.63 -5.94,-2.48 -5.69,-2.34 -5.69,-2.68 -7.54,-8.44 -2.67,4.4 -0.83,4.09 -6.3,2.92 -3.19,-0.68 -6.45,-2.43 -9.47,-3.58 -6.96,-2.56 -14.01,-5.01 -21.05,-7.33 2.51,-0.68 2.51,-1.51 -0.58,-2.36 0,0.68 -0.07,1.41 -0.14,2.12 -43.02,-13.94 -87.79,-22.99 -132.94,-26.86 -22.14,-1.9 -44.43,-2.31 -66.5,-4.02 -10.56,-0.85 -20.95,-0.63 -31.58,0 -2.94,0.1 -27.76,0.53 -24.48,6.43 -3.96,0.49 -7.81,0.95 -11.73,1.53 2.5,-5.52 -11,-5.77 -3.11,0.36 -39.15,5.79 -77.81,15.57 -115.01,29.15 -4.53,1.65 -9.39,2.46 -13.57,3.53 -1.51,-1.07 -2.58,-0.9 -3.19,0.51 -0.68,0.66 -1.17,1.48 -1.58,2.41 -6.98,3.7 -16.26,7.28 -24.23,10.9 -7.89,3.53 -12.41,5.77 -20.37,6.59 -5.52,0.61 -8.88,0.51 -13.16,3.68 -3.7,2.65 -6.89,7.06 -9.81,10.46 1.41,-0.51 2.85,-0.93 4.36,-1.29 -10.97,5.99 -21.6,12.41 -32.17,19.05 3.09,-2.92 5.43,-6.06 7.93,-9.42 -11.9,-1.05 -25.64,8.81 -35.94,14.55 -2.8,1.53 -6.3,2.92 -8.83,4.89 -5.84,4.53 -4.06,11.7 3.62,12.58 -2.43,1.78 -4.79,3.65 -7.2,5.33 -2.68,1.8 -1.17,-0.85 -2.85,0.34 -2.12,1.41 0.39,1.19 0.58,1.36 -64.11,48.93 -118.1,110.95 -157.66,181.22 0.24,-4.31 -5.79,4.99 -6.21,5.64 -2.46,3.72 -4.36,7.91 -6.47,11.9 -4.52,8.56 -9.05,17.03 -13.09,25.86 2.02,-1.65 3.96,-3.33 5.99,-5.01 -1.36,2.72 -2.51,5.5 -3.8,8.22 -0.34,-1.24 -0.9,-2.39 -1.75,-3.38 -2.5,3.14 -6.03,6.26 -7.2,10.25 -1.34,4.53 1.34,7.52 1,11.43 -0.49,5.33 -4.84,12.22 -6.69,17.2 -0.95,2.53 -1.78,5.21 -2.8,7.69 -0.83,1.95 -3.16,4.18 -3.85,5.86 0.27,-0.68 0.34,3.84 0.27,4.45 -0.44,3.99 -3.46,6.81 -4.53,10.36 -1.44,5.21 -2.29,11.05 -3.87,16.47 -2.26,-2.73 -3.5,-1.68 -6.52,-0.58 2.07,2.82 2.41,3.72 6.04,2.55 -3.36,11.78 -6.3,23.65 -8.88,35.64 -0.44,1.87 -1.95,15.6 -3.29,16.08 -2.92,1.12 -6.21,-5.5 -7.3,-7.28 -7.2,14.7 -7.54,35.99 -9.32,52.07 -1.99,18.79 -3.5,37.74 -3.33,56.64 0.1,18.27 -0.58,36.64 -0.17,54.92 0.1,4.77 0.75,8.88 2.17,13.38 1.02,3.04 2.97,5.47 1.85,8.81 -1.9,5.77 -5.77,1.05 -5.94,8.64 -0.34,25.06 5.21,52.34 10.63,76.76 2.6,11.87 8.05,21 13.19,31.97 0.83,1.65 2.99,4.67 2.34,6.69 -0.93,2.58 -4.28,1.61 -4.45,5.4 -0.07,1.92 1.85,3.72 2.43,5.5 1.26,3.45 1.19,7.59 1.75,11.21 1.17,-4.06 2.63,-8.1 4.02,-12.12 6.15,7.62 10.51,13.87 14.77,22.43 3.28,6.47 7.88,20.44 14.91,20.88 -0.58,-1.29 -0.41,-3.02 -1.17,-4.26 5.35,2.65 4.53,11.02 8.32,15.99 2.07,2.8 5.35,3.72 7.54,6.16 2.17,2.43 3.5,7.01 5.09,9.95 6.64,12.63 13.74,25.08 21.29,37.25 15.01,24.21 31.78,47.35 50.12,69.17 36.98,43.97 80.41,82.51 128.35,114.06 48.2,31.66 100.92,56.21 156.25,72.58 14.99,4.5 28.9,11.41 44.33,15.14 16.93,4.01 34.21,6.23 51.39,8.49 36.72,4.79 74.77,5.77 111.73,3.04 26.98,-2.02 53.75,-5.4 80.39,-10.03 10.58,-1.85 21.19,-3.89 31.7,-6.28 7.03,-1.63 14.91,-5.09 22.19,-5.26 2.12,-0.02 4.01,-0.02 5.96,1.15 2.53,1.51 3.26,7.3 4.94,8.15 3.36,1.56 4.53,-2.82 6.81,-3.43 2.17,-0.56 8.27,2.92 6.52,3.72 0.24,0 0.51,0 0.75,0 2.26,-2.92 7.3,-5.77 10.66,-8.22 -0.17,0.22 -0.44,0.41 -0.61,0.61 15.94,-6.91 30.61,-15.89 46.38,-23.36 7.88,-3.82 18.18,-4.43 25.3,-9.05 6.79,-4.48 11.31,-7.45 18.69,-9.83 3.19,-1.02 2.29,0.1 4.96,-1.92 1.17,-0.93 1.9,-2.97 3.43,-4.09 1.17,-0.87 5.62,-2.77 7.13,-3.02 3.53,-0.53 5.18,1.92 8.37,1.95 6.96,0.15 17.61,-6.06 23.14,-9.76 8.22,-5.5 15.16,-13.04 22.53,-19.54 -0.22,0.12 -0.49,0.29 -0.73,0.44 7.2,-6.16 17.83,-9.66 26.23,-14.36 23.89,-13.38 45.01,-32.02 64.87,-50.78 9.66,-9.15 19.05,-18.71 28.18,-28.49 8.71,-9.32 18.2,-17.13 27.42,-25.91 10.22,-9.85 15.82,-20.95 21.85,-33.55 5.64,-11.78 12.41,-17.52 23.31,-23.46 -4.43,11.85 -10.73,21.8 -17.28,32.7 3.96,-5.04 52.82,-67.83 41.51,-75.08 -5.28,-3.43 -12.34,3.19 -10.05,-6.08 2.24,-9.15 10.63,-19.03 15.16,-27.23 2.36,-4.11 4.69,-11.43 8.81,-14.4 3.36,-2.41 7.62,-2.16 10.8,-5.35 5.21,-5.13 7.13,-15.03 8.22,-21.82 -8.47,7.98 -20.12,16.57 -24.99,27.18 -4.53,9.83 -9.44,28.1 -20.34,32.43 -0.44,-3.36 1.17,-4.18 1.82,-7.3 0.75,-3.36 0.34,-3.43 0.41,-6.91 0.27,-6.57 2.68,-10.56 5.18,-16.45 2.87,-6.4 3.04,-12.02 6.71,-18.05 4.14,-6.89 7.98,-13.92 11.51,-21.12 14.82,-30.54 23.97,-63.38 28.88,-96.91 -2.85,2.85 -7.59,5.38 -8.88,9.42z"/>
  <path class="fil0" d="M1311.1 613.82c0.39,1.36 1.17,2.7 1.73,4.01 0.78,-1 1.51,-2.82 1.78,-4.01 -1.1,0 -2.51,-0.22 -3.5,0z"/>
  <path class="fil0" d="M889.13 58.78c-2.51,-1.29 -4.53,-1.29 -7.3,-0.88 2.51,1.63 4.62,2.34 7.3,0.88z"/>
  <path class="fil0" d="M79.56 363.8c10.73,-20.53 21.46,-41.02 33.26,-60.88 14.94,-25.04 31.29,-51.05 52.09,-71.7 17.08,-16.98 34.6,-33.5 51.46,-50.75 3.92,-3.99 7.76,-7.96 11.73,-11.92 5.43,-5.4 13.07,-10.39 14.31,-18.1 -10.56,0.17 -20.1,12.58 -27.66,19.49 -9.54,8.78 -18.76,17.86 -27.71,27.25 -17.76,18.69 -34.31,38.59 -49.56,59.34 -14.82,20.1 -28.49,41.05 -40.73,62.75 -5.21,9.25 -9.22,18.54 -13.14,27.15 -5.38,11.85 -11.85,23.84 -13.92,36.74 3.84,-6.2 6.76,-12.77 9.88,-19.37z"/>
  <path class="fil0" d="M1270.69 460.03c-0.78,9.27 1,19.03 8.78,25.04 8.66,-22.02 3.97,-45.67 -1.17,-67.96 -4.94,-22.04 -11.46,-48.59 -24.04,-67.47 -1.85,8.95 1.17,15.35 3.26,24.21 2.17,9.1 4.45,18.13 6.47,27.23 4.4,19.32 7.76,39.05 6.69,58.95z"/>
  <path class="fil0" d="M478.13 42.12c2.33,1.8 3.36,4.55 6.54,5.16 2.51,0.51 8.15,-2.41 10.32,-3.11 9.05,-2.92 18.18,-5.5 27.4,-7.76 14.92,-3.68 33.48,-3.72 47.11,-11.32 -12.55,-3.89 -28.57,-0.17 -41.63,1.24 -12.07,1.24 -24.48,2.7 -36.37,5.25 -4.48,0.97 -21.63,4.16 -13.36,10.53z"/>
  <path class="fil0" d="M1116.45 117.45c7.71,8.56 15.43,17.25 22.63,26.23 2.53,3.21 14.33,22 16.84,19.95 4.79,6.93 6.64,14.23 14.87,16.86 0.49,-8.46 -6.98,-14.09 -11.58,-21.36 -5.96,-9.25 -13.33,-17.23 -20.39,-25.69 -7.59,-9.27 -15.08,-18.71 -22.7,-27.96 -6.47,-7.83 -12.67,-17.3 -20.19,-24.06 -2.09,-1.87 -5.38,-4.53 -8.47,-3.26 -4.7,1.87 -2.43,4.16 -0.49,7.08 2.85,4.33 6.42,7.98 9.95,11.7 6.52,6.84 13.07,13.7 19.54,20.51z"/>
  <path class="fil0" d="M1275.45 516.69c-0.24,14.06 -1.51,28.25 -3.02,42.26 -0.75,6.84 -2.41,13.92 -2.53,20.78 -0.05,4.55 2.02,12.24 7.06,6.18 3.11,-3.79 2.6,-15.72 3.19,-20.22 1,-7.49 2.02,-15.03 2.6,-22.63 0.51,-6.76 0.93,-13.63 1.41,-20.46 0.61,-9.39 3.19,-22.29 0.78,-31.24 -1.6,-6.04 -5.3,-7.11 -7.54,-0.9 -1.12,2.99 -1.26,5.16 -1.51,8.15 -0.34,5.99 -0.27,12.07 -0.44,18.08z"/>
  <path class="fil0" d="M198.83 1017.94c-2.67,-3.02 -18.27,-18.95 -16.08,-21.6 -11.48,-13.99 -20.46,-30.66 -33.6,-43.04 7.37,17.78 20.12,33.84 31.75,49.1 5.86,7.74 12.07,15.21 18.44,22.58 5.86,6.89 11.39,14.79 19.71,18.68 -3.87,-9.85 -13.24,-17.66 -20.22,-25.72z"/>
  <path class="fil0" d="M872.02 22.36c9.05,0.63 21.53,3.99 30.03,0.44 -6.38,-5.21 -8.49,-1.51 -16.28,-1.92 -10.73,-0.49 -11.9,-8.57 -18.2,-14.84 -4.02,-4.02 -17.28,-10.05 -18.61,-2.24 -1.41,8.1 17.54,15.3 23.07,18.56z"/>
  <path class="fil0" d="M1194.48 218.3c2.19,2.14 2.12,-2 4.53,-1.46 3.63,0.83 5.21,5.21 7.03,8.05 4.21,6.35 8.49,12.65 13.41,18.47 -0.83,-10.24 -10.22,-34.06 -20.95,-37.06 -3.41,-0.9 -10.05,-2.36 -12.24,1.32 -3.02,5.18 5.52,7.96 8.22,10.68z"/>
  <path class="fil0" d="M1301.61 654.7c-5.38,7.59 -3.7,20.8 -4.7,30.36 -0.73,7.35 -1.51,14.7 -2.24,22 2.67,-8.57 5.18,-16.96 6.86,-25.82 1.51,-8.44 5.38,-19.51 0.07,-26.54z"/>
  <path class="fil0" d="M1294.16 708.71c-0.27,1.8 0.39,-1.15 0.51,-1.65 -0.78,0.73 -0.95,1.26 -0.51,1.65z"/>
  <path class="fil0" d="M219.78 216.67c-6.52,5.72 -14.23,11.21 -19.78,18.08 -3.09,3.82 -3.36,11.56 3.87,8.4 4.11,-1.73 10.32,-11.53 12.99,-14.31 1.75,-1.85 5.72,-5.13 6.28,-7.52 0.51,-1.87 0.17,-7.67 -3.36,-4.65z"/>
  <path class="fil0" d="M424.65 56.16c6.04,2.21 6.13,-4.43 7.13,-8.37 -8.54,-0.49 -13.33,3.5 -20.95,6.18 -7.13,2.53 -11.22,2.61 -15.52,9.27 9.39,-2.19 19.47,-10.61 29.34,-7.08z"/>
  <path class="fil0" d="M1058.52 56.76c6.47,5.69 13.16,14.09 21.39,16.89 -1.44,-10.12 -17.93,-20.07 -25.57,-26.45 -3.09,-2.55 -10.63,-6.93 -8.81,0.27 1.19,4.53 9.47,7.28 12.99,9.29z"/>
  <path class="fil0" d="M914.19 40.61c2.26,5.5 14.33,3.82 18.2,3.68 -1.78,-3.21 -10.08,-18.71 -15.86,-15.62 -1.41,0.73 -0.56,3.58 -1.34,4.72 0.1,-0.17 -4.6,5.67 -4.43,4.06 -0.1,0.88 3.09,2.21 3.43,3.16z"/>
  <path class="fil0" d="M856.33 1195.65c0,0.24 -10.63,4.97 -12.46,5.72 -9.66,4.04 -23.82,5.55 -31.36,12.43 8.44,1.46 17.78,-3.92 25.72,-6.84 9.32,-3.38 18.44,-6.96 27.59,-10.85 -3.02,-0.14 -6.86,-0.22 -9.49,-0.46z"/>
  <path class="fil0" d="M1173.68 277.81c-0.66,6.08 6.71,9.68 10.85,12.31 -0.27,-8.88 -2.53,-14.84 -8.56,-21.39 -0.75,3.02 -1.95,5.96 -2.29,9.07z"/>
  <path class="fil0" d="M1304.29 733.17c-1.34,7.15 -2.92,14.23 -3.36,21.43 5.21,-13.63 6.54,-29.12 8.54,-43.55 -1.48,6.13 -6.35,16.93 -5.18,22.12z"/>
  <path class="fil0" d="M12.41 501.92c0.95,-6.47 1.85,-12.97 2.77,-19.42 -4.18,14.89 -5.79,25.64 -7.37,41.07 1.58,-7.18 3.53,-14.4 4.6,-21.65z"/>
  <path class="fil0" d="M90.63 830.17c4.53,10.39 8.44,20.95 13.48,31.05 2.6,-13.58 -3.87,-22.65 -13.48,-31.05z"/>
  <path class="fil0" d="M346.3 84.72c1.07,-1.04 1.99,-2.21 2.85,-3.48 -5.38,0.1 -13.84,8.1 -16.93,6.38 -4.14,3.82 -8.15,7.66 -12.24,11.48 9.12,-4.45 17.93,-8.47 26.33,-14.38z"/>
  <path class="fil0" d="M117.86 895.21c0,-1.34 4.45,1.41 2.46,-5.48 -1.68,-5.38 -4.97,-10.46 -6.98,-15.77 -7.79,8.96 4.62,12.78 4.53,21.24z"/>
  <path class="fil0" d="M269.76 1084.6c-1.75,-1.04 -7.44,-4.77 -8.61,-2.63 -0.78,1.26 2.41,5.82 3.58,6.74 5.52,4.18 15.52,2.41 5.03,-4.11z"/>
  <path class="fil0" d="M40.07 466.3c0,2 0.51,3.84 1.44,5.55 6.11,-3.92 5.11,-5.11 3.7,-11.8 -1.68,1.97 -4.02,3.82 -5.14,6.26z"/>
  <path class="fil0" d="M494.38 1207.64c-6.25,-2.92 -13.8,-3.26 -20.44,-4.96 6.2,3.29 15.91,8.22 23.07,7.74 -0.68,-1.07 -1.61,-1.97 -2.63,-2.77z"/>
  <path class="fil0" d="M60.12 404.07c-2.94,5.89 -3.5,12.19 -4.53,18.59 3.75,-7.37 7.2,-14.07 7.11,-22.46 -0.9,1.21 -1.75,2.5 -2.58,3.87z"/>
  <path class="fil0" d="M878.13 1200.56c-2.75,0.95 -4.36,2.19 -6.71,3.87 5.82,0.53 10.85,0.36 14.26,-4.53 -3.19,-0.63 -4.43,-0.15 -7.54,0.66z"/>
  <path class="fil0" d="M954.75 54.31c-5.11,-6.11 -9.22,-7.81 -7.88,2.09 2.63,-0.68 5.3,-1.39 7.88,-2.09z"/>
  <path class="fil0" d="M1246.79 332.36c-1.58,-7.93 -5.77,-15.28 -9.05,-22.72 2.09,7.25 2.94,18.18 9.05,22.72z"/>
  <path class="fil0" d="M397.42 72.94c1.75,-1.7 3.43,-3.43 5.21,-5.16 -6.54,1.49 -12.41,2.12 -16.62,7.93 4.62,0.63 7.13,-0.95 11.41,-2.77z"/>
  <path class="fil0" d="M283.26 122.97c-6.13,-0.39 -6.64,-0.71 -10.9,3.87 5.04,2.78 6.55,-0.39 10.9,-3.87z"/>
  <path class="fil0" d="M10.24 772.7c0.49,1.41 1.44,2.58 2.6,3.55 2.68,-6.28 2.75,-6.86 -0.83,-12.63 -0.68,3.02 -1.6,5.96 -1.78,9.08z"/>
  <path class="fil0" d="M134.28 919.05c-1.85,-1.51 -3.68,-3.02 -5.52,-4.53 0.83,2.97 2.34,12.41 6.47,12.72 4.53,0.32 0.17,-5.89 -0.95,-8.2z"/>
  <path class="fil0" d="M238.4 1062.53c-1,4.87 1,5.21 4.87,8.37 1.51,-4.84 -1.07,-5.43 -4.87,-8.37z"/>
  <path class="fil0" d="M237.33 191.7c5.35,-2.17 7.06,-4.77 9.78,-9.78 -4.26,3.04 -7.86,4.72 -9.78,9.78z"/>
  <path class="fil0" d="M821.12 1221.49c-1.56,0.05 -3.02,0.49 -4.36,1.31 3.29,4.55 3.36,4.36 8.83,2.72 -1.34,-1.56 -2.8,-2.89 -4.48,-4.04z"/>
  <path class="fil0" d="M298 109.68c-4.69,1.36 -5.35,3.33 -7.81,7.39 4.79,-2.14 6.03,-2.55 7.81,-7.39z"/>
  <path class="fil0" d="M109.59 405.52c5.25,0.22 4.36,-1.12 4.75,-6.03 -4.18,1.78 -5.01,1.34 -4.75,6.03z"/>
  <path class="fil0" d="M1294.55 777.86c-0.07,1.07 0,2.09 0.27,3.14 1.02,-2.85 1.85,-4.4 1.41,-7.42 -0.56,1.43 -1.17,2.85 -1.68,4.28z"/>
  <path class="fil0" d="M443.53 56.5c1.34,-1.02 2.51,-2.24 3.41,-3.7 -4.23,-1.07 -4.43,-1.07 -7.27,2.24 1.19,0.83 2.43,1.31 3.87,1.46z"/>
  <path class="fil0" d="M992.39 98.08c-1.65,-0.85 -3.43,-1.46 -5.18,-1.85 2.02,4.89 2.33,4.72 7.61,5.13 -0.58,-1.24 -1.41,-2.38 -2.43,-3.29z"/>
  <path class="fil0" d="M684.43 1226.5c2.26,1.09 4.43,1.02 6.62,-0.2 -2.26,-0.85 -4.43,-0.78 -6.62,0.2z"/>
  <path class="fil0" d="M34.82 488.71c0.22,0.97 0.66,1.85 1.34,2.58 0.73,-0.36 2.33,-1.75 2.85,-2.43 -0.85,-1.36 -3.84,-3.26 -4.18,-0.14z"/>
  <path class="fil0" d="M827.28 40.8c1.73,0.29 3.5,0.27 5.25,-0.12 -3.02,-3.53 -3.02,-4.06 -7.54,-3.36 0.51,1.34 1.26,2.48 2.29,3.48z"/>
  <path class="fil0" d="M-0 707.52c0.44,1.48 1.12,2.82 2.12,3.99 1.92,-4.28 1.85,-4.55 -0.78,-8.51 -0.73,1.46 -1.17,2.94 -1.34,4.53z"/>
  <path class="fil0" d="M1277.06 799.37c2.41,-1.65 2.68,-1.65 2.19,-4.53 -2.02,0.9 -2.7,2.41 -2.19,4.53z"/>
  <path class="fil0" d="M104.55 862.39c0,-0.53 -0.17,-0.66 -0.44,-1.17 -0.17,0.51 -0.07,0.88 0.44,1.17z"/>
  <path class="fil0" d="M113.11 873.6c-2.87,-3.77 -5.72,-7.49 -8.57,-11.22 -0.17,5.84 3.09,9.39 8.57,11.22z"/>
  <path class="fil0" d="M1236.48 306.89c-1.34,-3.67 -2.6,-7.3 -3.94,-11 -3.09,1.92 1.68,8.81 3.94,11z"/>
  <path class="fil0" d="M1236.72 307.35c0.34,0.78 0.68,1.51 1.02,2.29 -0.68,-2.29 -1.19,-2.31 -1.02,-2.29z"/>
  <path class="fil0" d="M267.33 164.06c-3.11,0.46 -3.68,1.1 -5.35,3.92 2.75,-0.78 3.36,-1.8 5.35,-3.92z"/>
  <path class="fil0" d="M947.04 69.81c-1.51,-2.58 -2.36,-3.53 -5.21,-4.7 1.19,3.53 1.68,3.82 5.21,4.7z"/>
  <path class="fil0" d="M1003.46 1155.16c2.41,1 1.85,1.31 3.77,-1.56 -1.85,-0.41 -3.09,0.08 -3.77,1.56z"/>
  <path class="fil0" d="M821.12 1201.15c0.68,-0.93 1.36,-1.75 2.02,-2.58 -0.83,0.66 -1.58,1.51 -2.02,2.58z"/>
  <path class="fil0" d="M1259.01 875.53c-0.32,0.85 -0.56,1.7 -0.83,2.53 3.63,0.14 4.14,-0.78 0.83,-2.53z"/>
  <path class="fil0" d="M255.26 141.41c-1.78,0 -2.94,0.85 -3.5,2.65 1.56,-0.49 2.34,-1.41 3.5,-2.65z"/>
  <path class="fil0" d="M713.6 1223.14c0.34,0.75 0.68,1.56 0.9,2.33 1.61,-1.14 1.34,-2.28 -0.9,-2.33z"/>
  <path class="fil0" d="M6.81 745.04c0.17,0.8 0.34,1.66 0.51,2.41 0.39,-0.02 0.73,-0.1 1.17,-0.19 -0.51,-2.75 0.08,-2.58 -1.68,-2.22z"/>
  <path class="fil0" d="M47.37 379.78c0,0.44 3.04,0 0.58,-1.32 -0.17,0.44 -0.34,0.85 -0.58,1.32z"/>
  <path class="fil0" d="M1176.99 188.71c-3.31,-2.7 -4.96,0.78 -1.29,2.85 0.44,-0.88 1.12,-1.92 1.29,-2.85z"/>
  <path class="fil0" d="M1266.23 862.63c0.66,-0.51 1.34,-0.95 2.02,-1.44 -0.34,-0.19 -0.75,-0.34 -1.19,-0.44 -0.22,0.63 -0.49,1.26 -0.83,1.87z"/>
  <path class="fil0" d="M1038.83 82.24c-0.68,-0.05 -1.34,-0.19 -2.02,-0.27 0.24,0.41 0.41,0.85 0.68,1.24 0.41,-0.29 0.9,-0.63 1.34,-0.97z"/>
  <path class="fil0" d="M442.26 45.43c-0.58,0.24 -1.41,-0.8 -0.75,0.34 0.58,1.17 0.17,-0.1 0.75,-0.34z"/>
  <path class="fil0" d="M81.48 487.37c2.34,-0.63 2.29,0.02 1.61,-3.19 -1.61,0.71 -2.12,1.8 -1.61,3.19z"/>
  <path class="fil0" d="M798.83 1209.62c-0.07,-0.51 1.1,-0.97 -0.17,-0.66 -1.24,0.29 0.1,0.14 0.17,0.66z"/>
  <path class="fil0" d="M339.32 99.51c-0.41,0.27 -0.73,0.51 -1.17,0.73 1.34,0.88 0.66,-0.1 1.17,-0.73z"/>
  <path class="fil0" d="M1031.12 1136.52c-0.17,0.8 -0.44,1.6 -0.66,2.39 5.6,-2.04 1.07,-3.09 0.66,-2.39z"/>
  <path class="fil0" d="M1013.75 1147.5c0,1.24 0.61,1.7 1.78,1.36 -0.27,-2.48 -1.1,-1.02 -1.78,-1.36z"/>
  <path class="fil0" d="M37.66 510.71c-0.27,0.44 -0.44,0.87 -0.61,1.34 0.61,0.17 1.17,0.34 1.85,0.46 0.44,-1.26 0,-1.82 -1.24,-1.8z"/>
  <path class="fil0" d="M1084.6 135.28c1.92,3.7 3.09,-1.68 3.43,-1.85 -0.17,0.05 -5.38,-1.73 -3.43,1.85z"/>
  <path class="fil0" d="M462.04 46.71c-0.75,-0.68 -1.41,-0.56 -1.92,0.39 0.73,0.61 1.41,0.51 1.92,-0.39z"/>
  <path class="fil0" d="M1263.87 584.82c0.78,1.34 1.68,-0.15 1.85,-0.75 -0.66,-0.22 -1.34,-0.39 -1.9,-0.58 0,0.46 0,0.85 0.05,1.34z"/>
  <path class="fil0" d="M1259.96 409.59c-0.34,-0.44 0,-1.63 -0.58,-0.78 -0.58,0.93 0.24,0.27 0.58,0.78z"/>
  <path class="fil0" d="M416.43 1181.22c-0.15,-0.63 1.51,-0.39 -0.05,-0.73 -1.44,-0.27 0,0.17 0.05,0.73z"/>
  <path class="fil0" d="M1196.77 223.16c-0.44,-0.8 -0.85,-1.6 -1.19,-2.46 -0.44,1.46 -0.1,2.26 1.19,2.46z"/>
  <path class="fil0" d="M1195.58 220.71c-0.17,-1.56 0,-0.58 -0.44,-1.39 -0.49,0.36 -0.32,0.88 0.44,1.39z"/>
  <path class="fil0" d="M1087.18 112.31c-0.66,0.85 -0.39,1.29 0.68,1.39 0.93,-1.31 -0.17,-0.71 -0.68,-1.39z"/>
  <path class="fil0" d="M1290.88 793.29c0.32,-0.29 0.66,-0.61 1,-0.9 -0.34,-0.17 -0.56,-0.27 -0.9,-0.44 -0.1,0.44 -0.1,0.9 -0.1,1.34z"/>
  <path class="fil0" d="M24.82 567.74c0.27,-0.34 0.51,-0.71 0.78,-1.07 -0.34,-0.02 -0.78,-0.15 -1.12,-0.19 0.1,0.44 0.27,0.88 0.34,1.26z"/>
  <path class="fil0" d="M1251.98 342.73c-0.22,-0.34 -0.56,-0.66 -0.83,-1 -0.41,2.48 0.17,0.88 0.83,1z"/>
  <path class="fil0" d="M1304.04 648.03c0.51,-0.19 1.02,-0.39 1.51,-0.58 -2.68,-0.85 -3.19,-0.63 -1.51,0.58z"/>
  <path class="fil0" d="M1084.94 1090.2c-0.51,0.83 -0.95,1.7 -1.46,2.55 2.19,0.32 1.46,0.63 2.97,-2.36 -0.51,-0.19 -1,-0.27 -1.51,-0.19z"/>
  <path class="fil0" d="M834.31 1222.97c0.34,-0.29 0.68,-0.61 1,-0.93 -1.78,-0.75 -0.66,0.12 -1,0.93z"/>
  <path class="fil0" d="M530.78 1225.55c-0.24,1.17 0.14,1.53 1.34,1.04 0.27,-1.21 -0.17,-1.56 -1.34,-1.04z"/>
  <path class="fil0" d="M1169.93 242.51c1.17,0.07 1.51,-0.49 1.02,-1.6 -1.78,0.07 -0.61,0.75 -1.02,1.6z"/>
  <path class="fil0" d="M456.93 1197.55c0.58,-0.2 1.51,0.71 0.85,-0.32 -0.78,-1.09 -0.27,0.07 -0.85,0.32z"/>
  <path class="fil0" d="M251.63 1074.29c0.27,-0.63 1.51,-0.32 0.34,-0.85 -1.24,-0.58 -0.17,0.27 -0.34,0.85z"/>
  <path class="fil0" d="M738.15 1219.2c0.61,0.14 1.17,0.32 1.78,0.44 -0.1,-1.19 -0.68,-1.34 -1.78,-0.44z"/>
  <path class="fil0" d="M294.48 153.82c-0.83,-0.14 -1.78,-0.34 -2.6,-0.49 2.02,1.51 1.44,1.6 2.6,0.49z"/>
  <path class="fil0" d="M1272.7 601.17c0.73,-1.12 0.51,-1.63 -0.68,-1.63 -0.78,1.02 -0.51,1.53 0.68,1.63z"/>
  <path class="fil0" d="M845.89 43.92c-0.85,-1.78 -0.29,-1.44 -3.14,-0.68 2.19,2.02 1.51,1.95 3.14,0.68z"/>
  <path class="fil0" d="M261.8 180.97c-0.61,-0.93 -1.17,-1.02 -1.78,-0.27 0.17,0.41 0.44,0.78 0.61,1.22 0.39,-0.29 0.83,-0.63 1.17,-0.95z"/>
  <path class="fil0" d="M825.33 1197.04c-1.02,0.44 -1.58,0 -2.19,1.53 3.63,-3.04 0.44,-0.53 2.19,-1.53z"/>
  <path class="fil0" d="M291.05 153.24c1.27,-1.09 -1.19,0.66 -2.36,1.6 1.1,-0.24 1.85,-0.78 2.36,-1.6z"/>
  <path class="fil0" d="M286.62 156.35c0.66,-0.51 1.34,-1.02 2.07,-1.51 -1.34,0.12 -2.07,0.63 -2.07,1.51z"/>
  <path class="fil0" d="M1204.48 330.58c-0.61,-0.39 -1.19,-0.73 -1.78,-1.07 -0.19,0.44 -0.24,0.85 -0.41,1.27 0.73,1.04 1.51,1 2.19,-0.2z"/>
 </g>
</svg>
