<?xml version="1.0" encoding="UTF-8"?>
<!DOCTYPE svg PUBLIC "-//W3C//DTD SVG 1.1//EN" "http://www.w3.org/Graphics/SVG/1.1/DTD/svg11.dtd">
<!-- Creator: CorelDRAW 2019 (64-Bit) -->
<svg xmlns="http://www.w3.org/2000/svg" xml:space="preserve" width="669.925mm" height="7.62mm" version="1.1" style="shape-rendering:geometricPrecision; text-rendering:geometricPrecision; image-rendering:optimizeQuality; fill-rule:evenodd; clip-rule:evenodd"
viewBox="0 0 66513.65 756.55"
 xmlns:xlink="http://www.w3.org/1999/xlink"
 xmlns:xodm="http://www.corel.com/coreldraw/odm/2003">
 <defs>
  <style type="text/css">
   <![CDATA[
    .fil0 {fill:#B8D950}
   ]]>
  </style>
 </defs>
 <g id="Слой_x0020_1">
  <metadata id="CorelCorpID_0Corel-Layer"/>
  <path class="fil0" d="M-0 756.55c309.12,-20.7 634.35,-89.42 980.17,-92.05 621.59,-4.73 1573.66,2.72 2166.26,-89.01 448.98,-69.5 418.48,-183.66 749.09,-355.32 358.78,-186.3 531.3,32.14 901.87,49.73 788.32,37.43 1345.34,-134.43 2168.52,-45.76 359.88,38.77 614.74,105.02 1020.82,88.43 517.63,-21.14 972.03,-325.41 1940.32,-149.85 388.61,70.45 632.85,73.25 1035.68,91.52 384.17,17.41 605.23,160.82 914.82,186.76 792.17,66.33 1374.24,-17.32 2134.2,-40.48 327.77,-9.99 681.86,-72.33 1049.26,-65.65 725.72,13.2 2546.09,-53.06 3183.32,-122.7 340.54,-37.2 693.32,-71.47 1054.79,-76.16 517.71,-6.74 544.74,28.06 961.61,160.16 819.11,259.55 1272.59,-71.95 2015.71,-70.03 684.97,1.78 1430.77,116.27 2137.63,133.88 374.95,9.33 636.06,40.58 1031.7,6.62 367.01,-31.5 685.97,-60.66 1068.63,-59.84 742.19,1.61 1307.43,275.56 2076.06,111.7 1282.53,-273.4 2700.49,21.18 4263.5,-58.46 279.66,-14.25 780.87,-22.73 1042.63,-59.38 1830.32,-256.26 1678.54,8.67 3160.52,-49.56 339.53,-13.34 787.79,-51.77 1117.75,-14.47 738.13,83.44 1338.24,-164.54 2029.8,83.87 821.52,295.08 2168.14,146.15 3121.12,124.92 320.5,-7.14 822.37,30.64 1090.51,-33.48 1184.67,-283.24 944.59,-100.33 1484.32,-195.31 137.89,-24.27 290.9,-79.18 448.25,-106.59 286.08,-49.84 801.1,-18.5 1110.85,-16.66 1682.21,9.99 1328.64,192.01 1997.45,250.55 1825.79,159.78 2098.29,-198.01 3151.32,-171.77 399.79,9.97 653.42,78.17 1014.45,104.84 680.47,50.27 1500.88,-48.1 2207.9,-49.61 714.74,-1.53 1514.23,-37.84 2198.3,53.9 3008.53,403.47 3590.82,-176.53 5198.81,62.93 492.41,73.33 2650.77,71.68 3285.7,87.43l0 -431.63 -66513.65 0 0 756.55z"/>
 </g>
</svg>
