<?xml version="1.0" encoding="UTF-8"?>
<!DOCTYPE svg PUBLIC "-//W3C//DTD SVG 1.1//EN" "http://www.w3.org/Graphics/SVG/1.1/DTD/svg11.dtd">
<!-- Creator: CorelDRAW 2019 (64-Bit) -->
<svg xmlns="http://www.w3.org/2000/svg" xml:space="preserve" width="197.27mm" height="190.527mm" version="1.1" style="shape-rendering:geometricPrecision; text-rendering:geometricPrecision; image-rendering:optimizeQuality; fill-rule:evenodd; clip-rule:evenodd"
viewBox="0 0 6173.03 5962.03"
 xmlns:xlink="http://www.w3.org/1999/xlink"
 xmlns:xodm="http://www.corel.com/coreldraw/odm/2003">
 <defs>
  <style type="text/css">
   <![CDATA[
    .fil0 {fill:black}
   ]]>
  </style>
 </defs>
 <g id="Слой_x0020_1">
  <metadata id="CorelCorpID_0Corel-Layer"/>
  <path class="fil0" d="M422.51 4547.43c0,44.15 0,66.22 -11.04,88.3 -22.08,-11.04 -22.08,0 -22.08,-44.15 0,-33.11 11.04,-33.11 33.11,-44.15zm-132.45 -1324.49c11.04,-66.23 -11.04,-99.34 -11.04,-165.56 -11.04,-77.26 -22.07,0 -44.15,-88.3 0,0 -11.04,0 -11.04,0 0,-11.04 0,-11.04 0,-11.04 -33.11,11.04 -33.11,22.07 -55.19,55.19 44.15,77.26 55.19,121.41 44.15,242.82 55.19,-44.15 22.07,-55.19 33.11,-121.41l11.04 110.37c11.04,-11.04 22.07,-11.04 33.11,-22.07zm242.83 -3112.56l-231.79 0 11.04 231.79 0 66.22c-22.08,-11.04 -66.23,-33.11 -77.26,-44.15 22.08,-110.37 22.08,55.19 44.15,-253.86l-231.79 0c-22.08,77.26 11.04,55.19 -11.04,143.49 -22.07,66.22 0,110.37 0,165.56 11.04,44.15 -11.04,33.11 -22.07,66.22 -11.04,44.15 22.07,264.9 22.07,264.9 -11.04,143.48 -22.07,143.48 11.04,309.05 22.07,143.49 0,66.23 -22.08,143.49 -11.04,44.15 11.04,264.9 -11.04,364.24 -11.04,88.3 33.11,55.19 22.07,154.52 0,66.22 -11.04,99.34 -22.07,165.56 0,77.26 11.04,110.37 -11.04,176.6 -11.04,77.26 11.04,275.94 11.04,364.24l0 275.94c0,11.04 0,33.11 0,44.15l11.04 44.15c44.15,-99.33 -33.11,-364.23 33.11,-430.46 44.15,44.15 22.07,55.19 22.07,121.41 11.04,55.19 44.15,55.19 88.3,66.22 0,44.15 11.04,121.41 0,165.56 0,77.26 -22.07,77.26 22.07,110.37 0,0 0,0 0,11.04 11.04,0 11.04,0 11.04,0l0 66.23c44.15,22.07 22.07,11.04 33.11,33.11 22.08,11.04 0,0 11.04,22.08 22.08,22.07 -11.04,0 22.08,22.07 22.07,-33.11 22.07,-55.19 0,-88.3 -22.08,-55.19 -33.11,-154.52 -22.08,-187.63 33.11,-55.19 55.19,-11.04 22.08,-88.3l22.07 -11.04c11.04,-22.08 0,11.04 11.04,-33.11 11.04,-33.11 -11.04,-110.37 -22.07,-143.48 -11.04,-44.15 -11.04,11.04 -22.07,-44.15 88.3,-11.04 132.45,55.19 154.52,110.37 -88.3,0 -33.11,0 -77.26,-22.08l11.04 55.19 88.3 11.04c22.07,55.19 11.04,66.22 11.04,132.45 -44.15,22.08 -33.11,0 -77.26,22.08 22.07,44.15 11.04,0 22.07,33.11l0 353.2c-11.04,66.22 11.04,-11.04 -22.07,44.15 22.07,55.19 44.15,99.34 33.11,176.6l11.04 -253.86c22.07,33.11 44.15,342.16 33.11,386.31 -33.11,-11.04 -22.07,-11.04 -55.19,-22.08 -11.04,44.15 11.04,22.08 -22.07,66.23l-44.15 55.19 -11.04 -176.6 -55.19 -44.15 0 88.3c-44.15,0 0,0 -22.08,-22.07 -44.15,0 0,0 -22.07,11.04l-22.08 673.29c0,0 22.08,386.31 11.04,463.57 -11.04,66.23 -44.15,44.15 -33.11,143.49l88.3 0c-22.08,55.19 -11.04,0 -33.11,55.19 66.22,33.11 22.07,44.15 11.04,99.34 -11.04,44.15 0,-11.04 0,22.08 -11.04,44.15 -22.07,44.15 -33.11,55.19 88.3,33.11 55.19,209.71 44.15,275.94 -11.04,66.22 0,77.26 -44.15,121.41 -22.08,22.08 -33.11,22.08 -22.08,44.15 11.04,33.11 11.04,0 44.15,22.07 -11.04,88.3 -44.15,33.11 -66.22,110.38l55.19 11.04c0,121.41 -44.15,77.26 -33.11,132.45 11.04,55.19 22.08,-44.15 33.11,132.45 11.04,44.15 22.07,99.34 33.11,143.49 121.41,11.04 264.9,0 386.31,0 209.71,11.04 551.87,55.19 728.47,55.19 66.22,0 132.45,0 198.67,0 198.67,0 55.19,-11.04 154.52,-22.08 165.56,-11.04 706.4,22.08 949.22,22.08 55.19,11.04 99.34,0 176.6,0l275.94 0c33.11,0 33.11,-11.04 88.3,-11.04 231.79,-11.04 529.8,33.11 761.58,22.08 77.26,-11.04 375.27,0 430.46,-11.04 77.26,-22.08 905.07,22.07 1026.48,11.04 55.19,-11.04 -22.08,-22.08 165.56,-22.08 66.22,0 132.45,0 198.67,0 132.45,-11.04 253.86,11.04 386.31,11.04l0 -5938.15c-77.26,0 -242.83,-11.04 -309.05,0 -176.6,22.08 -430.46,0 -618.1,0l-441.5 -11.04c-44.15,11.04 -88.3,11.04 -143.49,11.04 -44.15,0 -88.3,22.08 -286.97,11.04 -286.98,-22.08 -540.83,0 -761.59,-11.04 -88.3,-11.04 -44.15,11.04 -121.41,11.04 -220.75,22.07 -728.47,0 -949.22,-11.04 -77.26,-11.04 -22.07,11.04 -110.37,22.08l-474.61 11.04c-209.71,0 -419.42,22.07 -618.1,22.07 -22.07,22.08 -11.04,22.08 -33.11,44.15 -22.08,-11.04 -11.04,-11.04 -22.08,-22.07l-662.25 22.07c-66.23,11.04 -22.08,22.08 -88.3,0zm-220.75 4304.61l11.04 55.19c33.11,-11.04 55.19,33.11 44.15,77.26 -22.08,66.22 -11.04,0 -33.11,66.22l-11.04 22.08c0,0 0,0 -11.04,0 0,11.04 0,11.04 0,11.04l-33.11 -44.15c11.04,-33.11 22.07,-44.15 33.11,-66.22 -11.04,-44.15 -22.08,-33.11 -22.08,-66.23 0,-22.07 22.08,-44.15 22.08,-55.19zm0 -695.36c0,-33.11 11.04,-44.15 11.04,-77.26 11.04,-55.19 0,-33.11 33.11,-55.19 22.08,33.11 11.04,55.19 22.08,88.3 11.04,99.34 55.19,33.11 0,143.49 -22.08,-121.41 33.11,-77.26 -33.11,-132.45l-22.07 33.11c-11.04,0 -11.04,0 -11.04,0zm-11.04 -1379.68c-22.07,11.04 -44.15,11.04 -44.15,-22.08 0,-22.07 22.07,-33.11 55.19,-44.15l-11.04 66.22zm-253.86 -22.08c-11.04,-88.3 0,-132.45 11.04,-165.56 0,0 0,0 0,-11.04 11.04,0 11.04,0 11.04,-11.04 22.07,33.11 33.11,132.45 33.11,165.56l-55.19 22.07zm11.04 -253.86c0,-22.08 0,-33.11 11.04,-44.15 11.04,-22.08 11.04,-11.04 33.11,-22.08 0,44.15 0,55.19 -44.15,66.23zm0 -99.34c-11.04,-33.11 -11.04,-110.37 0,-154.52 22.07,11.04 11.04,-11.04 33.11,33.11 22.08,77.26 22.08,110.37 -33.11,121.41zm11.04 -264.9c-11.04,-33.11 -11.04,33.11 -11.04,-44.15 0,-77.26 -11.04,-11.04 11.04,-33.11 22.07,22.08 33.11,33.11 0,77.26zm0 -331.13c0,-44.15 11.04,-44.15 55.19,-44.15l11.04 77.26 -66.22 -33.11zm33.11 -584.98c22.07,33.11 22.07,22.08 -11.04,44.15 -11.04,-11.04 -22.07,22.07 -11.04,-33.11 11.04,-22.07 11.04,0 22.08,-11.04zm77.26 -496.68c-22.07,-33.11 -11.04,-55.19 11.04,-77.26 22.08,44.15 11.04,55.19 -11.04,77.26zm-77.26 -121.41c22.07,22.08 11.04,22.08 -11.04,33.11 -11.04,-33.11 -11.04,-22.07 11.04,-33.11z"/>
 </g>
</svg>
